<svg xmlns="http://www.w3.org/2000/svg" xmlns:xlink="http://www.w3.org/1999/xlink" viewBox="0 0 650 650"><defs><style>.cls-1,.cls-12,.cls-13,.cls-6{fill:none;}.cls-2{isolation:isolate;}.cls-3{fill:#a2aaaa;mix-blend-mode:multiply;}.cls-20,.cls-4,.cls-7{fill:#fff;}.cls-5{clip-path:url(#clip-path);}.cls-6{stroke:#e2e2e2;}.cls-12,.cls-13,.cls-14,.cls-15,.cls-16,.cls-17,.cls-18,.cls-19,.cls-20,.cls-21,.cls-22,.cls-23,.cls-24,.cls-6,.cls-7{stroke-miterlimit:10;}.cls-19,.cls-20,.cls-21,.cls-22,.cls-23,.cls-7{stroke:#212628;}.cls-7{stroke-width:3px;}.cls-19,.cls-8{fill:#919191;}.cls-9{fill:#c8d4d6;}.cls-10{fill:#61686b;}.cls-11,.cls-21{fill:#212628;}.cls-12{stroke:#84a0a0;}.cls-12,.cls-13,.cls-14,.cls-15,.cls-16,.cls-17,.cls-18{stroke-width:0.75px;}.cls-13,.cls-14,.cls-15,.cls-16,.cls-17,.cls-18{stroke:#000;}.cls-14{fill:#ed9d11;}.cls-15{fill:#b71837;}.cls-16{fill:#e01936;}.cls-17{fill:#308261;}.cls-18,.cls-26{fill:#46bc8f;}.cls-19,.cls-20,.cls-21,.cls-22,.cls-23,.cls-24{stroke-width:2px;}.cls-22{fill:#c00;}.cls-23{fill:#ff9100;}.cls-24{fill:#eaeaea;stroke:#fff;}.cls-25{fill:#2a3335;}.cls-27{fill:red;}</style><clipPath id="clip-path"><path class="cls-1" d="M72.57,382.05c5.21,51.56,38.49,84.1,55.56,100.79,55.82,54.59,125.21,59.6,138.89,60.32,37.61,2,75.34-11.65,150.79-38.89C466,486.89,490,478.2,503.53,467.76c56.21-43.5,103.07-148.78,54-229.37-45.3-74.34-149.43-90.17-210.32-65.87-37.17,14.83-45.13,39.39-96,53.17-51.16,13.86-64.4-5.19-99.21,9.52C102.92,255.94,66.33,320.25,72.57,382.05Z"/></clipPath></defs><title>hero</title><g class="cls-2"><g id="Layer_1" data-name="Layer 1"><path class="cls-3" d="M598.9,98.46c11.75,16.62,26.89,47.92,2.34,190.72-20.13,117.1-30.2,175.65-53.77,206.67-79.7,104.87-269.22,128.64-398.17,56C130.54,541.29,26.25,482.54,8.74,369,6.46,354.26-2.14,293,31,234.68c25.7-45.28,64.66-67.8,139.89-111.26C195.78,109,222.95,93.14,262,77.33,319.75,54,382.11,28.72,458.08,37.07,495.67,41.2,563.7,48.68,598.9,98.46Z"/><path class="cls-3" d="M566.55,81.87c14.28,14.52,34.28,43,33.05,187.94-1,118.87-1.51,178.31-19.78,212.74C518,599,334.73,653,195.69,602,175.47,594.62,63,553.42,27.44,444.17c-4.63-14.22-23-73.35.28-136.25,18.08-48.86,52.92-77.37,120.19-132.41,22.3-18.25,46.57-38.29,82.59-60.2,53.25-32.39,110.76-67.36,187.11-71.36C455.39,42,523.77,38.38,566.55,81.87Z"/><path class="cls-4" d="M569.49,87.81c12.6,14.34,29.81,42,21,177.59-7.19,111.17-10.79,166.76-29.7,198C496.89,569.08,322.54,610,195.13,555,176.6,547,73.55,502.54,46,398.44,42.42,384.89,28.34,328.6,53.43,271c19.49-44.76,53.59-69.6,119.43-117.57,21.82-15.9,45.59-33.38,80.44-52,51.53-27.5,107.18-57.2,178.83-56.93C467.58,44.64,531.75,44.88,569.49,87.81Z"/><g class="cls-5"><polygon class="cls-6" points="363.63 80.48 858.61 366.48 363.63 652.48 -131.34 366.48 363.63 80.48"/><line class="cls-6" x1="-98.34" y1="347.41" x2="396.63" y2="633.41"/><line class="cls-6" x1="-65.35" y1="328.35" x2="429.63" y2="614.34"/><line class="cls-6" x1="-32.35" y1="309.28" x2="462.63" y2="595.28"/><line class="cls-6" x1="0.65" y1="290.21" x2="495.63" y2="576.21"/><line class="cls-6" x1="33.65" y1="271.15" x2="528.62" y2="557.14"/><line class="cls-6" x1="66.65" y1="252.08" x2="561.62" y2="538.08"/><line class="cls-6" x1="99.65" y1="233.01" x2="594.62" y2="519.01"/><line class="cls-6" x1="132.64" y1="213.95" x2="627.62" y2="499.94"/><line class="cls-6" x1="165.64" y1="194.88" x2="660.62" y2="480.88"/><line class="cls-6" x1="198.64" y1="175.82" x2="693.62" y2="461.81"/><line class="cls-6" x1="231.64" y1="156.75" x2="726.61" y2="442.75"/><line class="cls-6" x1="264.64" y1="137.68" x2="759.61" y2="423.68"/><line class="cls-6" x1="297.64" y1="118.62" x2="792.61" y2="404.61"/><line class="cls-6" x1="330.63" y1="99.55" x2="825.61" y2="385.55"/><line class="cls-6" x1="825.61" y1="347.41" x2="330.63" y2="633.41"/><line class="cls-6" x1="792.61" y1="328.35" x2="297.64" y2="614.34"/><line class="cls-6" x1="759.61" y1="309.28" x2="264.64" y2="595.28"/><line class="cls-6" x1="726.61" y1="290.21" x2="231.64" y2="576.21"/><line class="cls-6" x1="693.62" y1="271.15" x2="198.64" y2="557.14"/><line class="cls-6" x1="660.62" y1="252.08" x2="165.64" y2="538.08"/><line class="cls-6" x1="627.62" y1="233.01" x2="132.64" y2="519.01"/><line class="cls-6" x1="594.62" y1="213.95" x2="99.65" y2="499.94"/><line class="cls-6" x1="561.62" y1="194.88" x2="66.65" y2="480.88"/><line class="cls-6" x1="528.62" y1="175.82" x2="33.65" y2="461.81"/><line class="cls-6" x1="495.63" y1="156.75" x2="0.65" y2="442.75"/><line class="cls-6" x1="462.63" y1="137.68" x2="-32.35" y2="423.68"/><line class="cls-6" x1="429.63" y1="118.62" x2="-65.35" y2="404.61"/><line class="cls-6" x1="396.63" y1="99.55" x2="-98.34" y2="385.55"/></g></g><g id="Layer_3" data-name="Layer 3"><path class="cls-7" d="M509,341.5h0v-8.28l-8.56,1.09-96-55.4c-5.41-3.12-14.94-2.73-21.18.88L229.29,368.73l-14.86,1.89v10.49h0c-.06,2,1.14,4,3.64,5.45l101,58.29c5.41,3.12,14.94,2.73,21.18-.88L504,349.43C507.87,347.18,509.6,344.19,509,341.5Z"/><path class="cls-7" d="M319,434.92l-101-58.29c-5.41-3.12-4.72-8.63,1.52-12.23l163.74-94.54c6.24-3.6,15.78-4,21.18-.88l101,58.29c5.41,3.12,4.72,8.63-1.52,12.23L340.23,434C334,437.65,324.45,438,319,434.92Z"/><path class="cls-8" d="M509,341.5h0v-8.28l-8.56,1.09-96-55.4c-5.41-3.12-14.94-2.73-21.18.88L229.29,368.73l-14.86,1.89v10.49h0c-.06,2,1.14,4,3.64,5.45l101,58.29c5.41,3.12,14.94,2.73,21.18-.88L504,349.43C507.87,347.18,509.6,344.19,509,341.5Z"/><path class="cls-4" d="M319,434.92l-101-58.29c-5.41-3.12-4.72-8.63,1.52-12.23l163.74-94.54c6.24-3.6,15.78-4,21.18-.88l101,58.29c5.41,3.12,4.72,8.63-1.52,12.23L340.23,434C334,437.65,324.45,438,319,434.92Z"/><path class="cls-9" d="M335.52,420.61l-92.66-53.5c-3.16-1.82-2.76-5,.89-7.14l145-83.69c3.64-2.1,9.21-2.33,12.36-.51l92.66,53.5c3.16,1.82,2.76,5-.89,7.14l-145,83.69C344.24,422.21,338.68,422.44,335.52,420.61Z"/><path class="cls-10" d="M283.75,406.91,266.61,397c-2.19-1.26-1.91-3.49.61-4.94h0c2.52-1.46,6.38-1.62,8.56-.35l17.15,9.9c2.19,1.26,1.91,3.49-.61,4.94h0C289.79,408,285.94,408.17,283.75,406.91Z"/><path class="cls-11" d="M260.33,404.94c0,1.18-.83,1.65-1.86,1.06a4.1,4.1,0,0,1-1.86-3.21c0-1.18.83-1.65,1.86-1.06A4.1,4.1,0,0,1,260.33,404.94Z"/><path class="cls-11" d="M272.06,413.85l-5.82-3.36a3.85,3.85,0,0,1-1.6-3.06h0c0-1.17.72-1.72,1.6-1.21l5.82,3.36a3.85,3.85,0,0,1,1.6,3.06h0C273.66,413.81,272.94,414.36,272.06,413.85Z"/><path class="cls-12" d="M276,374.63,264.6,368c-4.08-2.36-3.56-6.51,1.15-9.23l8.93-5.15c4.71-2.72,11.9-3,16-.66l11.41,6.59c4.08,2.36,3.56,6.51-1.15,9.23L292,374C287.29,376.69,280.09,377,276,374.63Z"/><path class="cls-12" d="M418.84,311.41c-7,4-18.43,4-25.49-.05s-7.11-10.67-.09-14.72,18.43-4,25.49.05S425.85,307.37,418.84,311.41Z"/><path class="cls-12" d="M458.47,340.36,361.24,396.5c-5.13,3-12.9,3.29-17.34.72l-10.07-5.81c-4.45-2.57-3.89-7.05,1.25-10l97.23-56.14c5.13-3,12.9-3.29,17.34-.72l10.07,5.81C464.16,332.92,463.6,337.4,458.47,340.36Z"/><line class="cls-12" x1="393.34" y1="311.36" x2="302.07" y2="359.59"/><line class="cls-12" x1="316.86" y1="352.4" x2="350.33" y2="372.99"/><line class="cls-12" x1="341.9" y1="339.06" x2="375.37" y2="359.66"/><line class="cls-12" x1="363.72" y1="327.44" x2="397.19" y2="348.04"/><line class="cls-12" x1="387.44" y1="314.44" x2="420.91" y2="335.03"/><line class="cls-13" x1="406.04" y1="300.41" x2="392.31" y2="265.12"/><line class="cls-13" x1="406.04" y1="300.41" x2="446.66" y2="295.21"/><line class="cls-13" x1="392.31" y1="265.12" x2="440.08" y2="257.55"/><line class="cls-13" x1="446.66" y1="295.21" x2="487.51" y2="285.5"/><path class="cls-14" d="M418.31,302.86a12.26,12.26,0,0,0-24.52-.24c0,.13,0,.26,0,.39s0,.1,0,.15c.09,1.76,1.28,3.5,3.61,4.84,4.81,2.78,12.59,2.79,17.37,0,2.23-1.29,3.4-3,3.54-4.65,0-.13,0-.26,0-.39S418.31,302.91,418.31,302.86Z"/><circle class="cls-14" cx="392.31" cy="265.12" r="11.86"/><circle class="cls-14" cx="446.66" cy="295.21" r="11.86"/><circle class="cls-14" cx="487.51" cy="285.5" r="11.86"/><circle class="cls-14" cx="440.08" cy="257.55" r="11.86"/><path class="cls-15" d="M419.59,331.37h30.06v9.19a1.44,1.44,0,0,1-.86,1.42l-11.89,6.87a5.59,5.59,0,0,1-5-.21l-11-6.38a2.09,2.09,0,0,1-1.22-1.59h0Z"/><path class="cls-16" d="M436.91,339.55l11.89-6.87c1.29-.74,1.13-2-.36-2.91l-11-6.38a5.59,5.59,0,0,0-5-.21l-11.89,6.87c-1.29.74-1.13,2,.36,2.91l11,6.38A5.59,5.59,0,0,0,436.91,339.55Z"/><path class="cls-15" d="M394.92,344.71H425v9.19a1.44,1.44,0,0,1-.86,1.42l-11.89,6.87a5.59,5.59,0,0,1-5-.21l-11-6.38a2.09,2.09,0,0,1-1.22-1.59h0Z"/><path class="cls-16" d="M412.24,352.89,424.13,346c1.29-.74,1.13-2-.36-2.91l-11-6.38a5.59,5.59,0,0,0-5-.21l-11.89,6.87c-1.29.74-1.13,2,.36,2.91l11,6.38A5.59,5.59,0,0,0,412.24,352.89Z"/><path class="cls-15" d="M370.16,358h30.06v9.19a1.44,1.44,0,0,1-.86,1.42l-11.89,6.87a5.59,5.59,0,0,1-5-.21l-11-6.38a2.09,2.09,0,0,1-1.22-1.59h0Z"/><path class="cls-16" d="M387.48,366.22l11.89-6.87c1.29-.74,1.13-2-.36-2.91l-11-6.38a5.59,5.59,0,0,0-5-.21L371,356.73c-1.29.74-1.13,2,.36,2.91l11,6.38A5.59,5.59,0,0,0,387.48,366.22Z"/><path class="cls-15" d="M343.59,371.38h30.06v9.19a1.44,1.44,0,0,1-.86,1.42l-11.89,6.87a5.59,5.59,0,0,1-5-.21l-11-6.38a2.09,2.09,0,0,1-1.22-1.59h0Z"/><path class="cls-16" d="M360.91,379.55l11.89-6.87c1.29-.74,1.13-2-.36-2.91l-11-6.38a5.59,5.59,0,0,0-5-.21l-11.89,6.87c-1.29.74-1.13,2,.36,2.91l11,6.38A5.59,5.59,0,0,0,360.91,379.55Z"/><path class="cls-17" d="M297.87,355.12H268.82V364a1.39,1.39,0,0,0,.83,1.38L281.14,372a5.41,5.41,0,0,0,4.86-.2l10.68-6.16a2,2,0,0,0,1.18-1.54h0Z"/><path class="cls-18" d="M281.14,363l-11.49-6.64c-1.25-.72-1.09-2,.35-2.81l10.68-6.16a5.41,5.41,0,0,1,4.86-.2L297,353.85c1.25.72,1.09,2-.35,2.81L286,362.83A5.41,5.41,0,0,1,281.14,363Z"/><path class="cls-17" d="M297.87,343.49H268.82v8.89a1.39,1.39,0,0,0,.83,1.38l11.49,6.64a5.41,5.41,0,0,0,4.86-.2L296.68,354a2,2,0,0,0,1.18-1.54h0Z"/><path class="cls-18" d="M281.14,351.4l-11.49-6.64c-1.25-.72-1.09-2,.35-2.81l10.68-6.16a5.41,5.41,0,0,1,4.86-.2L297,342.22c1.25.72,1.09,2-.35,2.81L286,351.2A5.41,5.41,0,0,1,281.14,351.4Z"/><path class="cls-17" d="M297.87,332.07H268.82V341a1.39,1.39,0,0,0,.83,1.38L281.14,349a5.41,5.41,0,0,0,4.86-.2l10.68-6.16a2,2,0,0,0,1.18-1.54h0Z"/><path class="cls-18" d="M281.14,340l-11.49-6.64c-1.25-.72-1.09-2,.35-2.81l10.68-6.16a5.41,5.41,0,0,1,4.86-.2L297,330.8c1.25.72,1.09,2-.35,2.81L286,339.78A5.41,5.41,0,0,1,281.14,340Z"/><path class="cls-17" d="M297.87,320.36H268.82v8.89a1.39,1.39,0,0,0,.83,1.38l11.49,6.64a5.41,5.41,0,0,0,4.86-.2l10.68-6.16a2,2,0,0,0,1.18-1.54h0Z"/><path class="cls-18" d="M281.14,328.26l-11.49-6.64c-1.25-.72-1.09-2,.35-2.81l10.68-6.16a5.41,5.41,0,0,1,4.86-.2L297,319.09c1.25.72,1.09,2-.35,2.81L286,328.06A5.41,5.41,0,0,1,281.14,328.26Z"/></g><g id="Layer_2" data-name="Layer 2"><path class="cls-19" d="M333.46,236.28,152.08,341c-3.94,2.27-7.13-.14-7.13-5.39V225c0-5.25,3.19-11.35,7.13-13.63L333.46,106.61c3.94-2.27,7.13.14,7.13,5.39V222.65C340.59,227.9,337.4,234,333.46,236.28Z"/><path class="cls-20" d="M150.31,340.4c0,3.7,2.62,5.19,5.85,3.33l183.95-106.2A12.88,12.88,0,0,0,346,227.45V122.63l-195.64,113Z"/><path class="cls-21" d="M340.11,107.85,156.16,214.06a12.88,12.88,0,0,0-5.85,10.08v11.44L346,122.63V111.18C346,107.48,343.34,106,340.11,107.85Z"/><path class="cls-22" d="M165,220.69c-1.38,2.37-3.61,3.66-5,2.88s-1.38-3.34,0-5.72,3.61-3.66,5-2.88S166.41,218.32,165,220.69Z"/><path class="cls-23" d="M177.23,210.79a7.77,7.77,0,0,1-3.53,6.08c-1.95,1.13-3.53.23-3.53-2a7.77,7.77,0,0,1,3.53-6.08C175.65,207.66,177.23,208.56,177.23,210.79Z"/><path class="cls-24" d="M323.86,235.7,172.41,323.14c-4.25,2.45-7.69-.15-7.69-5.81v-71c0-5.66,3.44-12.24,7.69-14.69l151.45-87.44c4.25-2.45,7.69.15,7.69,5.81v71C331.55,226.67,328.1,233.25,323.86,235.7Z"/><path class="cls-25" d="M348.38,252.37,196.93,339.81c-4.25,2.45-7.69-.15-7.69-5.81V263c0-5.66,3.44-12.24,7.69-14.69l151.45-87.44c4.25-2.45,7.69.15,7.69,5.81v71C356.07,243.34,352.63,249.92,348.38,252.37Z"/><path class="cls-26" d="M254.17,240.6l-40.43,23.34c-1.53.88-2.77-.06-2.77-2.1h0a6.67,6.67,0,0,1,2.77-5.3l40.43-23.34c1.53-.88,2.77.06,2.77,2.1h0A6.67,6.67,0,0,1,254.17,240.6Z"/><path class="cls-27" d="M305,211.22l-40.43,23.34c-1.53.88-2.77-.06-2.77-2.1h0a6.67,6.67,0,0,1,2.77-5.3L305,203.83c1.53-.88,2.77.06,2.77,2.1h0A6.67,6.67,0,0,1,305,211.22Z"/><path class="cls-26" d="M242.65,259.93l-28.9,16.69c-1.53.88-2.77-.06-2.77-2.1h0a6.67,6.67,0,0,1,2.77-5.3l28.9-16.69c1.53-.88,2.77.06,2.77,2.1h0A6.67,6.67,0,0,1,242.65,259.93Z"/><path class="cls-4" d="M275.17,241.16l-23,13.27c-1.53.88-2.77-.06-2.77-2.1h0a6.67,6.67,0,0,1,2.77-5.3l23-13.27c1.53-.88,2.77.06,2.77,2.1h0A6.67,6.67,0,0,1,275.17,241.16Z"/><path class="cls-27" d="M318.87,215.93l-33.31,19.23c-1.53.88-2.77-.06-2.77-2.1h0a6.67,6.67,0,0,1,2.77-5.3l33.31-19.23c1.53-.88,2.77.06,2.77,2.1h0A6.67,6.67,0,0,1,318.87,215.93Z"/><path class="cls-4" d="M249.42,268.76l-35.68,20.6c-1.53.88-2.77-.06-2.77-2.1h0a6.67,6.67,0,0,1,2.77-5.3l35.68-20.6c1.53-.88,2.77.06,2.77,2.1h0A6.67,6.67,0,0,1,249.42,268.76Z"/><path class="cls-26" d="M305.14,236.59l-45.43,26.23c-1.53.88-2.77-.06-2.77-2.1h0a6.67,6.67,0,0,1,2.77-5.3l45.43-26.23c1.53-.88,2.77.06,2.77,2.1h0A6.67,6.67,0,0,1,305.14,236.59Z"/><path class="cls-27" d="M233.84,290.5l-20.1,11.6C212.22,303,211,302,211,300h0a6.67,6.67,0,0,1,2.77-5.3l20.1-11.6c1.53-.88,2.77.06,2.77,2.1h0A6.67,6.67,0,0,1,233.84,290.5Z"/><path class="cls-26" d="M259.08,275.93l-16,9.26c-1.53.88-2.77-.06-2.77-2.1h0a6.67,6.67,0,0,1,2.77-5.3l16-9.26c1.53-.88,2.77.06,2.77,2.1h0A6.67,6.67,0,0,1,259.08,275.93Z"/><path class="cls-4" d="M298,253.44l-29.58,17.08c-1.53.88-2.77-.06-2.77-2.1h0a6.67,6.67,0,0,1,2.77-5.3L298,246c1.53-.88,2.77.06,2.77,2.1h0A6.67,6.67,0,0,1,298,253.44Z"/><path class="cls-4" d="M331.57,195.91l-16,9.26c-1.53.88-2.77-.06-2.77-2.1h0a6.67,6.67,0,0,1,2.77-5.3l16-9.26c1.53-.88,2.77.06,2.77,2.1h0A6.67,6.67,0,0,1,331.57,195.91Z"/><path class="cls-4" d="M329.77,235.12l-23,13.27c-1.53.88-2.77-.06-2.77-2.1h0a6.67,6.67,0,0,1,2.77-5.3l23-13.27c1.53-.88,2.77.06,2.77,2.1h0A6.67,6.67,0,0,1,329.77,235.12Z"/><path class="cls-4" d="M242.65,298.16l-28.9,16.69c-1.53.88-2.77-.06-2.77-2.1h0a6.67,6.67,0,0,1,2.77-5.3l28.9-16.69c1.53-.88,2.77.06,2.77,2.1h0A6.67,6.67,0,0,1,242.65,298.16Z"/><path class="cls-27" d="M275.17,279.39l-23,13.27c-1.53.88-2.77-.06-2.77-2.1h0a6.67,6.67,0,0,1,2.77-5.3l23-13.27c1.53-.88,2.77.06,2.77,2.1h0A6.67,6.67,0,0,1,275.17,279.39Z"/><path class="cls-26" d="M318.87,254.16l-33.31,19.23c-1.53.88-2.77-.06-2.77-2.1h0a6.67,6.67,0,0,1,2.77-5.3l33.31-19.23c1.53-.88,2.77.06,2.77,2.1h0A6.67,6.67,0,0,1,318.87,254.16Z"/><path class="cls-4" d="M326.76,224.11l-12.18,7c-1.53.88-2.77-.06-2.77-2.1h0a6.67,6.67,0,0,1,2.77-5.3l12.18-7c1.53-.88,2.77.06,2.77,2.1h0A6.67,6.67,0,0,1,326.76,224.11Z"/></g></g></svg>