<svg xmlns="http://www.w3.org/2000/svg" xmlns:xlink="http://www.w3.org/1999/xlink" viewBox="0 0 494.74 317.43"><defs><style>.cls-1,.cls-9{isolation:isolate;}.cls-2,.cls-3{fill:none;stroke-miterlimit:10;}.cls-2{stroke:#eaeaea;}.cls-3{stroke:#8fa9b7;stroke-width:2px;}.cls-4{fill:url(#linear-gradient);}.cls-5{fill:#bfdbe2;}.cls-6{fill:#6aa1aa;}.cls-7{fill:#75afbc;}.cls-8{fill:#fff;}.cls-11,.cls-9{fill:#00b2e3;}.cls-9{opacity:0.4;}.cls-10{fill:#1a82e2;}.cls-12{fill:url(#linear-gradient-2);}.cls-13{mix-blend-mode:hard-light;}.cls-14{fill:#da4e31;}.cls-15{fill:url(#linear-gradient-3);}.cls-16{fill:#912626;}.cls-17{fill:#c6302b;}.cls-18{fill:#621b1c;}.cls-19{fill:#9a2928;}.cls-20{fill:url(#linear-gradient-4);}.cls-21{fill:url(#linear-gradient-5);}.cls-22{fill:url(#linear-gradient-6);}.cls-23{fill:url(#linear-gradient-7);}.cls-24{fill:#25663f;}.cls-25{fill:#a6a385;}.cls-26{fill:#499d4a;}.cls-27{fill:#58aa50;}.cls-28{fill:url(#linear-gradient-8);}.cls-29{fill:url(#linear-gradient-9);}.cls-30{fill:url(#linear-gradient-10);}.cls-31{fill:url(#linear-gradient-11);}.cls-32{fill:#336791;}.cls-33{fill:url(#linear-gradient-12);}.cls-34{fill:#256568;}</style><linearGradient id="linear-gradient" x1="158.38" y1="249.08" x2="219" y2="249.08" gradientUnits="userSpaceOnUse"><stop offset="0" stop-color="#52a2bc"/><stop offset="1" stop-color="#6b9faa"/></linearGradient><linearGradient id="linear-gradient-2" x1="315.9" y1="233.01" x2="376.51" y2="233.01" xlink:href="#linear-gradient"/><linearGradient id="linear-gradient-3" x1="314.18" y1="130.56" x2="374.79" y2="130.56" xlink:href="#linear-gradient"/><linearGradient id="linear-gradient-4" x1="84.63" y1="161.47" x2="132.3" y2="161.47" xlink:href="#linear-gradient"/><linearGradient id="linear-gradient-5" x1="84.63" y1="153.51" x2="132.3" y2="153.51" xlink:href="#linear-gradient"/><linearGradient id="linear-gradient-6" x1="84.63" y1="145.09" x2="132.3" y2="145.09" xlink:href="#linear-gradient"/><linearGradient id="linear-gradient-7" x1="84.63" y1="137.12" x2="132.3" y2="137.12" xlink:href="#linear-gradient"/><linearGradient id="linear-gradient-8" x1="199.7" y1="72.57" x2="247.37" y2="72.57" xlink:href="#linear-gradient"/><linearGradient id="linear-gradient-9" x1="199.7" y1="64.61" x2="247.37" y2="64.61" xlink:href="#linear-gradient"/><linearGradient id="linear-gradient-10" x1="199.7" y1="56.18" x2="247.37" y2="56.18" xlink:href="#linear-gradient"/><linearGradient id="linear-gradient-11" x1="199.7" y1="48.22" x2="247.37" y2="48.22" xlink:href="#linear-gradient"/><linearGradient id="linear-gradient-12" x1="216.94" y1="172.7" x2="294.99" y2="172.7" xlink:href="#linear-gradient"/></defs><title>Asset 1</title><g class="cls-1"><g id="Layer_2" data-name="Layer 2"><g id="Layer_3" data-name="Layer 3"><line class="cls-2" x1="0.25" y1="166.67" x2="260.62" y2="316.99"/><line class="cls-2" x1="12.56" y1="159.56" x2="272.93" y2="309.89"/><line class="cls-2" x1="24.87" y1="152.45" x2="285.24" y2="302.78"/><line class="cls-2" x1="37.18" y1="145.35" x2="297.55" y2="295.67"/><line class="cls-2" x1="49.49" y1="138.24" x2="309.86" y2="288.57"/><line class="cls-2" x1="61.79" y1="131.13" x2="322.17" y2="281.46"/><line class="cls-2" x1="74.1" y1="124.03" x2="334.47" y2="274.35"/><line class="cls-2" x1="86.41" y1="116.92" x2="346.78" y2="267.25"/><line class="cls-2" x1="98.72" y1="109.82" x2="359.09" y2="260.14"/><line class="cls-2" x1="111.03" y1="102.71" x2="371.4" y2="253.03"/><line class="cls-2" x1="123.34" y1="95.6" x2="383.71" y2="245.93"/><line class="cls-2" x1="135.65" y1="88.5" x2="396.02" y2="238.82"/><line class="cls-2" x1="147.96" y1="81.39" x2="408.33" y2="231.71"/><line class="cls-2" x1="160.27" y1="74.28" x2="420.64" y2="224.61"/><line class="cls-2" x1="172.57" y1="67.18" x2="432.95" y2="217.5"/><line class="cls-2" x1="184.88" y1="60.07" x2="445.25" y2="210.39"/><line class="cls-2" x1="197.19" y1="52.96" x2="457.56" y2="203.29"/><line class="cls-2" x1="209.5" y1="45.86" x2="469.87" y2="196.18"/><line class="cls-2" x1="221.81" y1="38.75" x2="482.18" y2="189.08"/><line class="cls-2" x1="234.12" y1="31.64" x2="494.49" y2="181.97"/><line class="cls-2" x1="494.4" y1="167.7" x2="235.91" y2="316.94"/><line class="cls-2" x1="482" y1="160.55" x2="223.52" y2="309.78"/><line class="cls-2" x1="469.6" y1="153.39" x2="211.12" y2="302.62"/><line class="cls-2" x1="457.2" y1="146.23" x2="198.72" y2="295.47"/><line class="cls-2" x1="444.81" y1="139.07" x2="186.32" y2="288.31"/><line class="cls-2" x1="432.41" y1="131.91" x2="173.92" y2="281.15"/><line class="cls-2" x1="420.01" y1="124.75" x2="161.52" y2="273.99"/><line class="cls-2" x1="407.61" y1="117.6" x2="149.12" y2="266.83"/><line class="cls-2" x1="395.21" y1="110.44" x2="136.72" y2="259.67"/><line class="cls-2" x1="382.81" y1="103.28" x2="124.33" y2="252.52"/><line class="cls-2" x1="370.41" y1="96.12" x2="111.93" y2="245.36"/><line class="cls-2" x1="358.02" y1="88.96" x2="99.53" y2="238.2"/><line class="cls-2" x1="345.62" y1="81.8" x2="87.13" y2="231.04"/><line class="cls-2" x1="333.22" y1="74.65" x2="74.73" y2="223.88"/><line class="cls-2" x1="320.82" y1="67.49" x2="62.33" y2="216.72"/><line class="cls-2" x1="308.42" y1="60.33" x2="49.93" y2="209.57"/><line class="cls-2" x1="296.02" y1="53.17" x2="37.54" y2="202.41"/><line class="cls-2" x1="283.62" y1="46.01" x2="25.14" y2="195.25"/><line class="cls-2" x1="271.22" y1="38.85" x2="12.74" y2="188.09"/><line class="cls-2" x1="258.83" y1="31.7" x2="0.34" y2="180.93"/><path class="cls-3" d="M248,191.31l-38.11-22a2.48,2.48,0,0,1,0-4.29l45-26a2.48,2.48,0,0,1,2.48,0l45.34,26.18a2.48,2.48,0,0,1,0,4.29L265,191.31A17,17,0,0,1,248,191.31Z"/><path class="cls-3" d="M229.32,180.51l-27.13,15.88a4,4,0,0,0-.1,6.84l21.6,13.5a4,4,0,0,1-.09,6.84l-19.26,11.36"/><line class="cls-3" x1="283.01" y1="181.27" x2="345.36" y2="217.71"/><line class="cls-3" x1="279.3" y1="151.71" x2="324.87" y2="126.83"/><path class="cls-3" d="M245.67,144.39l-67.63-39a4,4,0,0,1,0-6.93l30.11-17.33"/><path class="cls-3" d="M225.17,156.22,169.84,124.5a4,4,0,0,0-4,0l-48.22,27.23"/></g><g id="Layer_2-2" data-name="Layer 2"><polygon class="cls-4" points="158.38 241.43 158.38 239.18 188.8 256.74 219 239.31 219 241.56 188.8 258.99 158.38 241.43"/><polygon class="cls-5" points="188.8 256.74 158.38 239.18 188.58 221.75 219 239.31 188.8 256.74"/><polygon class="cls-5" points="188.78 224.56 163.25 209.81 188.6 195.18 214.13 209.92 188.78 224.56"/><polygon class="cls-6" points="188.69 253.88 163.16 239.14 163.16 209.87 188.69 224.61 188.69 253.88"/><polygon class="cls-7" points="214.22 239.14 188.69 253.88 188.69 224.61 214.22 209.87 214.22 239.14"/><path class="cls-8" d="M200.17,166H184.86v7.65h-7.65v15.31h15.31v-7.65h7.65Z"/><path class="cls-9" d="M177.21,173.61v7.67h7.65v7.65h7.67V173.61Z"/><path class="cls-10" d="M177.21,181.28h7.65v7.65h-7.65Z"/><path class="cls-11" d="M192.52,173.61V166h-7.67v15.31h15.31v-7.67Z"/><path class="cls-10" d="M192.52,166h7.65v7.65h-7.65Z"/><polygon class="cls-12" points="315.9 225.35 315.9 223.1 346.32 240.66 376.51 223.23 376.51 225.48 346.32 242.91 315.9 225.35"/><polygon class="cls-5" points="346.32 240.66 315.9 223.1 346.1 205.67 376.51 223.23 346.32 240.66"/><polygon class="cls-5" points="346.3 208.48 320.77 193.74 346.12 179.1 371.65 193.84 346.3 208.48"/><polygon class="cls-6" points="346.21 237.8 320.68 223.06 320.68 193.79 346.21 208.53 346.21 237.8"/><polygon class="cls-7" points="371.74 223.06 346.21 237.8 346.21 208.53 371.74 193.79 371.74 223.06"/><g class="cls-13"><polygon class="cls-14" points="315.9 225.35 315.9 223.1 346.32 240.66 376.51 223.23 376.51 225.48 346.32 242.91 315.9 225.35"/><polygon class="cls-14" points="346.32 240.66 315.9 223.1 346.1 205.67 376.51 223.23 346.32 240.66"/><polygon class="cls-14" points="346.3 208.48 320.77 193.74 346.12 179.1 371.65 193.84 346.3 208.48"/><polygon class="cls-14" points="346.21 237.8 320.68 223.06 320.68 193.79 346.21 208.53 346.21 237.8"/><polygon class="cls-14" points="371.74 223.06 346.21 237.8 346.21 208.53 371.74 193.79 371.74 223.06"/></g><path class="cls-14" d="M345.92,151.31a11.5,11.5,0,1,0,11.5,11.5A11.5,11.5,0,0,0,345.92,151.31Zm0,21.53a3,3,0,0,1-3.27-2.7h6.55A3,3,0,0,1,345.92,172.84Zm5.41-3.59H340.51v-2h10.81v2h0Zm0-3H340.54l-.11-.12a7.83,7.83,0,0,1-1.62-2.76s1.34.27,2.3.49c0,0,.49.11,1.21.24a4.49,4.49,0,0,1-1.1-2.89c0-2.31,1.77-4.32,1.13-5.95.62.05,1.29,1.31,1.33,3.28a7,7,0,0,0,.94-3.6c0-1.06.7-2.29,1.39-2.33-.62,1,.16,1.9.86,4.08.26.82.23,2.19.43,3.07.07-1.81.38-4.46,1.53-5.37a4,4,0,0,0,.47,3.28,6.22,6.22,0,0,1,1,3.56,4.45,4.45,0,0,1-1.06,2.87c.76-.14,1.28-.27,1.28-.27l2.47-.48A7,7,0,0,1,351.28,166.28Z"/><polygon class="cls-15" points="314.18 122.91 314.18 120.66 344.6 138.22 374.8 120.78 374.8 123.03 344.6 140.47 314.18 122.91"/><polygon class="cls-5" points="344.6 138.22 314.18 120.66 344.38 103.22 374.8 120.78 344.6 138.22"/><polygon class="cls-5" points="344.58 106.03 319.05 91.29 344.4 76.66 369.93 91.4 344.58 106.03"/><polygon class="cls-6" points="344.49 135.36 318.96 120.61 318.96 91.34 344.49 106.09 344.49 135.36"/><polygon class="cls-7" points="370.02 120.61 344.49 135.36 344.49 106.09 370.02 91.34 370.02 120.61"/><g class="cls-13"><polygon class="cls-16" points="314.18 122.91 314.18 120.66 344.6 138.22 374.8 120.78 374.8 123.03 344.6 140.47 314.18 122.91"/><polygon class="cls-16" points="344.6 138.22 314.18 120.66 344.38 103.22 374.8 120.78 344.6 138.22"/><polygon class="cls-16" points="344.58 106.03 319.05 91.29 344.4 76.66 369.93 91.4 344.58 106.03"/><polygon class="cls-16" points="344.49 135.36 318.96 120.61 318.96 91.34 344.49 106.09 344.49 135.36"/><polygon class="cls-16" points="370.02 120.61 344.49 135.36 344.49 106.09 370.02 91.34 370.02 120.61"/></g><path class="cls-16" d="M355.3,68c-1.25.65-7.74,3.32-9.12,4a3.08,3.08,0,0,1-3.24.19c-1.09-.52-8-3.31-9.24-3.9-.62-.3-.95-.55-.95-.78V65.17s9-2,10.44-2.48a3.68,3.68,0,0,1,3.19-.09c1.23.45,8.62,1.78,9.84,2.23v2.34c0,.23-.28.49-.92.82"/><path class="cls-17" d="M355.3,65.64c-1.25.65-7.74,3.32-9.12,4a3.08,3.08,0,0,1-3.24.19c-1.09-.52-8-3.31-9.23-3.9s-1.27-1,0-1.48,8.08-3.17,9.53-3.69a3.68,3.68,0,0,1,3.19-.09c1.23.45,7.68,3,8.9,3.46s1.27.82,0,1.47"/><path class="cls-16" d="M355.3,64.16c-1.25.65-7.74,3.32-9.12,4a3.08,3.08,0,0,1-3.24.19c-1.09-.52-8-3.31-9.24-3.9-.62-.3-.95-.55-.95-.78V61.33s9-2,10.44-2.48a3.68,3.68,0,0,1,3.19-.09c1.23.45,8.62,1.78,9.84,2.23v2.34c0,.23-.28.49-.92.82"/><path class="cls-17" d="M355.3,61.8c-1.25.65-7.74,3.32-9.12,4a3.08,3.08,0,0,1-3.24.19c-1.09-.52-8-3.31-9.23-3.9s-1.27-1,0-1.48,8.08-3.17,9.53-3.69a3.68,3.68,0,0,1,3.19-.09c1.23.45,7.68,3,8.9,3.46s1.27.82,0,1.47"/><path class="cls-16" d="M355.3,60.18c-1.25.65-7.74,3.32-9.12,4a3.08,3.08,0,0,1-3.24.19c-1.09-.52-8-3.31-9.24-3.9-.62-.3-.95-.55-.95-.78V57.35s9-2,10.44-2.48a3.68,3.68,0,0,1,3.19-.09c1.23.45,8.62,1.78,9.84,2.23v2.34c0,.23-.28.49-.92.82"/><path class="cls-17" d="M355.3,57.82c-1.25.65-7.74,3.32-9.12,4a3.08,3.08,0,0,1-3.24.19c-1.09-.52-8-3.31-9.23-3.9s-1.27-1,0-1.48,8.08-3.17,9.53-3.69a3.68,3.68,0,0,1,3.19-.09c1.23.45,7.68,3,8.9,3.46s1.27.82,0,1.47"/><path class="cls-8" d="M347.36,55.52l-2,.21-.45,1.09-.73-1.21-2.33-.21,1.74-.63-.52-1,1.63.64,1.53-.5-.41,1,1.56.59m-2.59,5.27L341,59.22l5.39-.83-1.63,2.39m-5.22-4.67c1.59,0,2.88.5,2.88,1.12s-1.29,1.12-2.88,1.12-2.88-.5-2.88-1.12,1.29-1.12,2.88-1.12"/><path class="cls-18" d="M349.74,55.81l3.19,1.26-3.19,1.26V55.81"/><path class="cls-19" d="M346.21,57.21l3.53-1.4v2.52l-.35.14-3.19-1.26"/><path class="cls-20" d="M132.3,156.22h-1.87a16.47,16.47,0,0,0-5.17-4.44c-9.34-5.39-24.43-5.43-33.71-.07a16,16,0,0,0-5.19,4.51H84.63v5.25h0c0,3.51,2.39,7,7,9.7,9.34,5.39,24.43,5.43,33.71.07,4.66-2.69,7-6.23,6.92-9.77h0Z"/><path class="cls-5" d="M125.38,166c-9.27,5.35-24.37,5.32-33.71-.07s-9.4-14.11-.12-19.46,24.37-5.32,33.71.07S134.65,160.63,125.38,166Z"/><path class="cls-21" d="M132.3,148.26h-1.87a16.47,16.47,0,0,0-5.17-4.44c-9.34-5.39-24.43-5.43-33.71-.07a16,16,0,0,0-5.19,4.51H84.63v5.25h0c0,3.51,2.39,7,7,9.7,9.34,5.39,24.43,5.43,33.71.07,4.66-2.69,7-6.23,6.92-9.77h0Z"/><path class="cls-5" d="M125.38,158c-9.27,5.35-24.37,5.32-33.71-.07s-9.4-14.11-.12-19.46,24.37-5.32,33.71.07S134.65,152.67,125.38,158Z"/><path class="cls-22" d="M132.3,139.83h-1.87a16.47,16.47,0,0,0-5.17-4.44c-9.34-5.39-24.43-5.43-33.71-.07a16,16,0,0,0-5.19,4.51H84.63v5.25h0c0,3.51,2.39,7,7,9.7,9.34,5.39,24.43,5.43,33.71.07,4.66-2.69,7-6.23,6.92-9.77h0Z"/><path class="cls-5" d="M125.38,149.6c-9.27,5.35-24.37,5.32-33.71-.07s-9.4-14.11-.12-19.46,24.37-5.32,33.71.07S134.65,144.25,125.38,149.6Z"/><path class="cls-23" d="M132.3,131.87h-1.87a16.47,16.47,0,0,0-5.17-4.44c-9.34-5.39-24.43-5.43-33.71-.07a16,16,0,0,0-5.19,4.51H84.63v5.25h0c0,3.51,2.39,7,7,9.7,9.34,5.39,24.43,5.43,33.71.07,4.66-2.69,7-6.23,6.92-9.77h0Z"/><path class="cls-5" d="M125.38,141.64C116.1,147,101,147,91.67,141.57s-9.4-14.11-.12-19.46,24.37-5.32,33.71.07S134.65,136.28,125.38,141.64Z"/><g class="cls-13"><path class="cls-24" d="M132.3,156.22h-1.87a16.47,16.47,0,0,0-5.17-4.44c-9.34-5.39-24.43-5.43-33.71-.07a16,16,0,0,0-5.19,4.51H84.63v5.25h0c0,3.51,2.39,7,7,9.7,9.34,5.39,24.43,5.43,33.71.07,4.66-2.69,7-6.23,6.92-9.77h0Z"/><path class="cls-24" d="M125.38,166c-9.27,5.35-24.37,5.32-33.71-.07s-9.4-14.11-.12-19.46,24.37-5.32,33.71.07S134.65,160.63,125.38,166Z"/><path class="cls-24" d="M132.3,148.26h-1.87a16.47,16.47,0,0,0-5.17-4.44c-9.34-5.39-24.43-5.43-33.71-.07a16,16,0,0,0-5.19,4.51H84.63v5.25h0c0,3.51,2.39,7,7,9.7,9.34,5.39,24.43,5.43,33.71.07,4.66-2.69,7-6.23,6.92-9.77h0Z"/><path class="cls-24" d="M125.38,158c-9.27,5.35-24.37,5.32-33.71-.07s-9.4-14.11-.12-19.46,24.37-5.32,33.71.07S134.65,152.67,125.38,158Z"/><path class="cls-24" d="M132.3,139.83h-1.87a16.47,16.47,0,0,0-5.17-4.44c-9.34-5.39-24.43-5.43-33.71-.07a16,16,0,0,0-5.19,4.51H84.63v5.25h0c0,3.51,2.39,7,7,9.7,9.34,5.39,24.43,5.43,33.71.07,4.66-2.69,7-6.23,6.92-9.77h0Z"/><path class="cls-24" d="M125.38,149.6c-9.27,5.35-24.37,5.32-33.71-.07s-9.4-14.11-.12-19.46,24.37-5.32,33.71.07S134.65,144.25,125.38,149.6Z"/><path class="cls-24" d="M132.3,131.87h-1.87a16.47,16.47,0,0,0-5.17-4.44c-9.34-5.39-24.43-5.43-33.71-.07a16,16,0,0,0-5.19,4.51H84.63v5.25h0c0,3.51,2.39,7,7,9.7,9.34,5.39,24.43,5.43,33.71.07,4.66-2.69,7-6.23,6.92-9.77h0Z"/><path class="cls-24" d="M125.38,141.64C116.1,147,101,147,91.67,141.57s-9.4-14.11-.12-19.46,24.37-5.32,33.71.07S134.65,136.28,125.38,141.64Z"/></g><path class="cls-8" d="M109.44,114.76l-.82-.28s.1-4.16-1.39-4.46c-1-1.15.16-49,3.74-.16a2.91,2.91,0,0,0-1.45,1.67,15.35,15.35,0,0,0-.08,3.22Z"/><path class="cls-25" d="M109.44,114.76l-.82-.28s.1-4.16-1.39-4.46c-1-1.15.16-49,3.74-.16a2.91,2.91,0,0,0-1.45,1.67,15.35,15.35,0,0,0-.08,3.22Z"/><path class="cls-8" d="M109.87,110.74a14.46,14.46,0,0,0,5.47-14.47c-1.61-7.11-5.41-9.43-5.83-10.33a10,10,0,0,1-.9-1.75l.3,19.76s-.62,6.05,1,6.79"/><path class="cls-26" d="M109.87,110.74a14.46,14.46,0,0,0,5.47-14.47c-1.61-7.11-5.41-9.43-5.83-10.33a10,10,0,0,1-.9-1.75l.3,19.76s-.62,6.05,1,6.79"/><path class="cls-8" d="M108.2,111s-6.71-4.58-6.31-12.64,5.12-12,6-12.74a1.85,1.85,0,0,0,.66-1.51c.42.9.34,13.4.4,14.87C109.16,104.65,108.66,109.92,108.2,111Z"/><path class="cls-27" d="M108.2,111s-6.71-4.58-6.31-12.64,5.12-12,6-12.74a1.85,1.85,0,0,0,.66-1.51c.42.9.34,13.4.4,14.87C109.16,104.65,108.66,109.92,108.2,111Z"/><path class="cls-28" d="M247.37,67.32H245.5a16.47,16.47,0,0,0-5.17-4.44c-9.34-5.39-24.43-5.43-33.71-.07a16,16,0,0,0-5.19,4.51H199.7v5.25h0c0,3.51,2.39,7,7,9.7,9.34,5.39,24.43,5.43,33.71.07,4.66-2.69,7-6.23,6.92-9.77h0Z"/><path class="cls-5" d="M240.45,77.08c-9.27,5.35-24.37,5.32-33.71-.07s-9.4-14.11-.12-19.46,24.37-5.32,33.71.07S249.72,71.73,240.45,77.08Z"/><path class="cls-29" d="M247.37,59.36H245.5a16.47,16.47,0,0,0-5.17-4.44c-9.34-5.39-24.43-5.43-33.71-.07a16,16,0,0,0-5.19,4.51H199.7v5.25h0c0,3.51,2.39,7,7,9.7,9.34,5.39,24.43,5.43,33.71.07,4.66-2.69,7-6.23,6.92-9.77h0Z"/><path class="cls-5" d="M240.45,69.12c-9.27,5.35-24.37,5.32-33.71-.07s-9.4-14.11-.12-19.46,24.37-5.32,33.71.07S249.72,63.77,240.45,69.12Z"/><path class="cls-30" d="M247.37,50.93H245.5a16.47,16.47,0,0,0-5.17-4.44c-9.34-5.39-24.43-5.43-33.71-.07a16,16,0,0,0-5.19,4.51H199.7v5.25h0c0,3.51,2.39,7,7,9.7,9.34,5.39,24.43,5.43,33.71.07,4.66-2.69,7-6.23,6.92-9.77h0Z"/><path class="cls-5" d="M240.45,60.7c-9.27,5.35-24.37,5.32-33.71-.07s-9.4-14.11-.12-19.46,24.37-5.32,33.71.07S249.72,55.34,240.45,60.7Z"/><path class="cls-31" d="M247.37,43H245.5a16.47,16.47,0,0,0-5.17-4.44c-9.34-5.39-24.43-5.43-33.71-.07A16,16,0,0,0,201.43,43H199.7v5.25h0c0,3.51,2.39,7,7,9.7,9.34,5.39,24.43,5.43,33.71.07,4.66-2.69,7-6.23,6.92-9.77h0Z"/><path class="cls-5" d="M240.45,52.74c-9.27,5.35-24.37,5.32-33.71-.07s-9.4-14.11-.12-19.46,24.37-5.32,33.71.07S249.72,47.38,240.45,52.74Z"/><g class="cls-13"><path class="cls-32" d="M247.37,67.32H245.5a16.47,16.47,0,0,0-5.17-4.44c-9.34-5.39-24.43-5.43-33.71-.07a16,16,0,0,0-5.19,4.51H199.7v5.25h0c0,3.51,2.39,7,7,9.7,9.34,5.39,24.43,5.43,33.71.07,4.66-2.69,7-6.23,6.92-9.77h0Z"/><path class="cls-32" d="M240.45,77.08c-9.27,5.35-24.37,5.32-33.71-.07s-9.4-14.11-.12-19.46,24.37-5.32,33.71.07S249.72,71.73,240.45,77.08Z"/><path class="cls-32" d="M247.37,59.36H245.5a16.47,16.47,0,0,0-5.17-4.44c-9.34-5.39-24.43-5.43-33.71-.07a16,16,0,0,0-5.19,4.51H199.7v5.25h0c0,3.51,2.39,7,7,9.7,9.34,5.39,24.43,5.43,33.71.07,4.66-2.69,7-6.23,6.92-9.77h0Z"/><path class="cls-32" d="M240.45,69.12c-9.27,5.35-24.37,5.32-33.71-.07s-9.4-14.11-.12-19.46,24.37-5.32,33.71.07S249.72,63.77,240.45,69.12Z"/><path class="cls-32" d="M247.37,50.93H245.5a16.47,16.47,0,0,0-5.17-4.44c-9.34-5.39-24.43-5.43-33.71-.07a16,16,0,0,0-5.19,4.51H199.7v5.25h0c0,3.51,2.39,7,7,9.7,9.34,5.39,24.43,5.43,33.71.07,4.66-2.69,7-6.23,6.92-9.77h0Z"/><path class="cls-32" d="M240.45,60.7c-9.27,5.35-24.37,5.32-33.71-.07s-9.4-14.11-.12-19.46,24.37-5.32,33.71.07S249.72,55.34,240.45,60.7Z"/><path class="cls-32" d="M247.37,43H245.5a16.47,16.47,0,0,0-5.17-4.44c-9.34-5.39-24.43-5.43-33.71-.07A16,16,0,0,0,201.43,43H199.7v5.25h0c0,3.51,2.39,7,7,9.7,9.34,5.39,24.43,5.43,33.71.07,4.66-2.69,7-6.23,6.92-9.77h0Z"/><path class="cls-32" d="M240.45,52.74c-9.27,5.35-24.37,5.32-33.71-.07s-9.4-14.11-.12-19.46,24.37-5.32,33.71.07S249.72,47.38,240.45,52.74Z"/></g><path d="M236.1,15.36a1.26,1.26,0,0,0-1-.84,2.4,2.4,0,0,0-.84,0,7.51,7.51,0,0,1-1.29.17,24.84,24.84,0,0,0,2.63-6.26c.87-3.38.41-4.92-.14-5.61A7.55,7.55,0,0,0,229.34,0a10.78,10.78,0,0,0-3.16.44,11.78,11.78,0,0,0-1.85-.17,6,6,0,0,0-3.22.79A14.69,14.69,0,0,0,218.83.5a7,7,0,0,0-5.33.85c-1.59,1.12-2.32,3.07-2.19,5.79a33.29,33.29,0,0,0,1.29,6A20.68,20.68,0,0,0,214,16.66,4.38,4.38,0,0,0,216.23,19a2.2,2.2,0,0,0,2.18-.47,1.9,1.9,0,0,0,.46.39,3,3,0,0,0,.86.36,4.64,4.64,0,0,0,3-.18c0,.16,0,.31,0,.44s0,.42,0,.61a10.66,10.66,0,0,0,.4,3l.05.16a3.64,3.64,0,0,0,.91,1.6,2.71,2.71,0,0,0,1.91.71,4.3,4.3,0,0,0,.89-.1,4.21,4.21,0,0,0,2.83-1.64c.74-1.06,1.1-2.65,1.17-5.16l0-.2,0-.13.18,0h0a6.93,6.93,0,0,0,2.9-.5c.58-.27,2.43-1.25,2-2.57"/><path class="cls-32" d="M234.44,15.62c-2.9.6-3.1-.38-3.1-.38,3.06-4.54,4.34-10.3,3.23-11.71-3-3.85-8.22-2-8.31-2h0a10.33,10.33,0,0,0-1.93-.2,4.77,4.77,0,0,0-3.06.92S212-1.56,212.39,7.08c.09,1.84,2.64,13.91,5.67,10.27,1.11-1.33,2.18-2.46,2.18-2.46a2.81,2.81,0,0,0,1.84.47l.05,0a2,2,0,0,0,0,.52c-.78.87-.55,1-2.11,1.35s-.65.91,0,1.06a3.21,3.21,0,0,0,3.59-1.16l0,.18a5.22,5.22,0,0,1,.49,2.82,7.77,7.77,0,0,0,.18,2.72c.24.66.48,2.13,2.54,1.69a3,3,0,0,0,2.73-2.91c.09-1.13.29-1,.3-2l.16-.48c.18-1.53,0-2,1.09-1.8l.26,0a5.86,5.86,0,0,0,2.39-.4c1.29-.6,2.05-1.59.78-1.33h0"/><path class="cls-8" d="M221.79,7.9a.9.9,0,0,0-.62.09.23.23,0,0,0-.09.15.44.44,0,0,0,.11.29.81.81,0,0,0,.51.32h.08a.66.66,0,0,0,.63-.43c0-.23-.3-.38-.62-.42m8.65,0c0-.18-.34-.23-.64-.19s-.59.18-.57.36a.61.61,0,0,0,.57.38h.08a.73.73,0,0,0,.41-.23.46.46,0,0,0,.15-.31"/><path class="cls-8" d="M235.4,15.55c-.11-.33-.47-.44-1.06-.32-1.75.36-2.38.11-2.59,0a24.11,24.11,0,0,0,3.09-6.93,13.16,13.16,0,0,0,.46-3,3.22,3.22,0,0,0-.47-2A6.85,6.85,0,0,0,229.3.68a9.49,9.49,0,0,0-3.2.5,8,8,0,0,0-1.8-.23,5.21,5.21,0,0,0-3.09.85,13.78,13.78,0,0,0-2.51-.66,6.39,6.39,0,0,0-4.8.74c-1.38,1-2,2.72-1.89,5.18a32.5,32.5,0,0,0,1.26,5.81c1,3.21,2,5,3.17,5.4a1.42,1.42,0,0,0,.45.07,1.88,1.88,0,0,0,1.43-.81q1-1.14,2-2.23a3.18,3.18,0,0,0,1.42.38v0l-.25.31c-.34.44-.41.53-1.52.75-.31.06-1.15.24-1.16.82s1,.91,1.1.94a4.71,4.71,0,0,0,1.14.15,3.33,3.33,0,0,0,2.29-.86,21.68,21.68,0,0,0,.35,5.21,2.61,2.61,0,0,0,2.5,1.93,4,4,0,0,0,.84-.1,3.17,3.17,0,0,0,2.89-2.94c.16-.94.44-3.18.57-4.39a3.53,3.53,0,0,0,1,.13,6,6,0,0,0,2.31-.44c.65-.3,1.83-1,1.61-1.69Zm-4.3-8.13a7.3,7.3,0,0,1-.11,1,9.37,9.37,0,0,0-.13,1.19A9,9,0,0,0,231,11a4.8,4.8,0,0,1-.21,2.73,3.56,3.56,0,0,1-.19-.39c-.05-.13-.17-.34-.33-.62-.62-1.12-2.08-3.73-1.34-4.8.22-.32.79-.64,2.2-.47Zm-1.72-6a6.06,6.06,0,0,1,4.88,2.31c.89,1.14-.09,6.33-2.94,10.81l-.09-.11,0,0a5.06,5.06,0,0,0,.46-3.48,8.35,8.35,0,0,1-.09-1.24,8.77,8.77,0,0,1,.12-1.1,7,7,0,0,0,.11-1.37.57.57,0,0,0,0-.19,7.67,7.67,0,0,0-1.75-3.29A7.89,7.89,0,0,0,227.3,1.6a9.38,9.38,0,0,1,2.09-.2ZM217.76,17.08c-.57.69-1,.56-1.1.51-.85-.28-1.84-2.08-2.71-4.93A32.21,32.21,0,0,1,212.73,7c-.11-2.2.42-3.73,1.58-4.55,1.89-1.34,5-.54,6.25-.13l-.05.05c-2,2.07-2,5.6-2,5.82s0,.2,0,.36a14.62,14.62,0,0,1-.07,3,3.74,3.74,0,0,0,1,3.13l.25.24c-.35.38-1.11,1.21-1.93,2.18ZM220,14.16a3,3,0,0,1-.79-2.53,15.29,15.29,0,0,0,.08-3.1c0-.09,0-.16,0-.22a3.94,3.94,0,0,1,2.68-.78,1.09,1.09,0,0,1,.84.94c.59,2.74.08,3.88-.33,4.79-.09.19-.17.37-.23.55l-.05.14a9.36,9.36,0,0,0-.34,1,2.55,2.55,0,0,1-1.83-.81Zm.1,3.69a1.59,1.59,0,0,1-.48-.21,2.34,2.34,0,0,1,.51-.15c1.3-.27,1.5-.46,1.94-1,.1-.13.21-.27.37-.45h0c.23-.26.34-.22.54-.14a.76.76,0,0,1,.37.48.54.54,0,0,1,0,.45A2.84,2.84,0,0,1,220.05,17.85Zm6.8,6.33a1.93,1.93,0,0,1-2.52-1.4,28.51,28.51,0,0,1-.27-6.28.36.36,0,0,0,0-.11,1.5,1.5,0,0,0,0-.21,1.45,1.45,0,0,0-.79-.95,1.11,1.11,0,0,0-.73-.09,8.78,8.78,0,0,1,.31-.94l.05-.14c.06-.16.14-.33.22-.51.43-1,1-2.27.38-5.24a1.87,1.87,0,0,0-2.26-1.53,5.21,5.21,0,0,0-1.73.54l-.2.11A7.55,7.55,0,0,1,221,2.9a4.31,4.31,0,0,1,3.27-1.22,6.93,6.93,0,0,1,5.29,2.53A8,8,0,0,1,231,6.69c-1.34-.14-2.25.13-2.71.79-1,1.44.55,4.22,1.3,5.56.14.25.26.46.29.55a5,5,0,0,0,.79,1.27l.19.25c-.41.12-1.13.39-1.07,1.74-.05.68-.43,3.85-.63,5a2.46,2.46,0,0,1-2.33,2.36Zm6.63-7.59a5.23,5.23,0,0,1-1.77.37,2.22,2.22,0,0,1-1.19-.15c0-.84.27-.93.6-1l.15,0,.1.07a4.39,4.39,0,0,0,3.1.12h0a4,4,0,0,1-1,.66Z"/><polygon class="cls-5" points="256.11 178.39 216.94 155.78 255.82 133.33 294.99 155.94 256.11 178.39"/><polygon class="cls-33" points="294.99 167.17 256.11 189.61 216.94 167 216.94 155.78 256.11 178.39 294.99 155.94 294.99 167.17"/><g class="cls-13"><polygon class="cls-34" points="256.11 178.31 216.94 155.7 255.82 133.25 294.99 155.86 256.11 178.31"/><polygon class="cls-34" points="294.74 167.17 255.85 189.61 216.69 167 216.69 155.78 256.36 178.25 295.24 155.81 294.74 167.17"/></g><path class="cls-8" d="M254.51,116.69c-3.34.31,0,.1-20.76,3.73-5.27.92-8.83,1.51-11,4.52-1.89,2.57-2.07,5.9-2.26,9.32-.16,2.88-.29,5.18.8,7.72.85,2,2.26,3.69,6.52,6.65s7.09,4.23,12.78,7.05c10.86,5.39,11,5.86,13.31,6.12,4.94.55,8.87-1.07,13.71-3.06,3.85-1.58,6.69-3.54,12.38-7.45,4.79-3.3,6.52-5,8-7.05a14.77,14.77,0,0,0,3.06-6.92c.33-2.69-.57-3.15-1.2-8.52-.54-4.59,0-5.38-.93-6.92-1.62-2.74-5.15-3.47-7.32-3.86A112.13,112.13,0,0,0,254.51,116.69Z"/><path class="cls-34" d="M291.66,129.39c0,4.61,0,9.23,0,13.84a10.52,10.52,0,0,1-5.15,9.33q-11.75,7.41-23.56,14.72a10.46,10.46,0,0,1-11.21.24q-13.45-7.48-26.85-15a10.68,10.68,0,0,1-5.51-7.89,11.65,11.65,0,0,1-.13-1.92q0-13.47,0-26.93a10.8,10.8,0,0,1,5.22-9.58l25-16.11a10.88,10.88,0,0,1,12,0l19.06,12.3c2,1.32,4.09,2.63,6.13,4a10.69,10.69,0,0,1,4.86,7.21,11,11,0,0,1,.18,2C291.67,120.13,291.66,124.76,291.66,129.39Zm-7.32,5.06a.54.54,0,0,1,0-.14l.32-.36a13,13,0,0,0,3.44-7.63,6.57,6.57,0,0,0-.34-2.9,3,3,0,0,0-3.54-2,6.51,6.51,0,0,0-2.31,1c-1.87,1.18-3.74,2.38-5.63,3.54a.75.75,0,0,0-.39.78c.12,2.75.23,5.5.33,8.25q.23,5.92.46,11.84a3,3,0,0,0,.07.39c.93-.59,1.79-1.15,2.68-1.68a.81.81,0,0,0,.47-.85c-.1-2.09-.14-4.18-.27-6.27,0-.63.1-1,.69-1.24l.16,0,5.05,4.52,4.21-2.66Zm-11.2,15.08,3.49-2.2c-3.09-6.16-6.13-12.29-9.2-18.41l-.11,0L260,157.78a2.8,2.8,0,0,0,.28-.12c1-.62,2-1.24,3-1.85a.8.8,0,0,0,.34-.57c.45-1.84.91-3.67,1.35-5.51a1,1,0,0,1,.48-.66l5.4-3.4.4-.22ZM255.3,128.15l-28.82-18.28-.71,1.13.73.48L254.17,129a.89.89,0,0,1,.49.84c.07,4.58.18,9.15.27,13.72s.17,8.9.25,13.35c0,.19,0,.38,0,.54h1.3c0-.2,0-.36,0-.52q-.13-6.08-.25-12.17-.14-7.35-.27-14.69c0-1-.12-.72.64-1.23l28-18.65.54-.37-.75-1.1Zm-18.78-23.9,23.18,13.39,13.5-7.8L250,96.45Zm29.48.53,2.21-1.31a1.31,1.31,0,0,0,.31-.29,1,1,0,0,0,0-1.37,2.35,2.35,0,0,0-.61-.51c-4.24-2.45-8.46-4.92-12.72-7.34a4,4,0,0,0-4.1,0q-8.69,5-17.36,10a3.24,3.24,0,0,0-.3.22c.45.5.86.42,1.39.11q7.73-4.51,15.5-9l.51-.28,15.1,8.72-.69.51Zm-16.65,9.61-.57-.34-8-4.61q-3.92-2.26-7.84-4.54a.65.65,0,0,0-.78,0c-.5.32-1,.59-1.53.89a2.69,2.69,0,0,0-.55.42,1,1,0,0,0,0,1.53,3.12,3.12,0,0,0,.69.51l12.44,7.19a4.34,4.34,0,0,0,2.95.5C247.35,115.75,248.23,115,249.34,114.39Zm-7.84,23c.52.32,1,.64,1.5.91a.87.87,0,0,0,1.35-.55,1.72,1.72,0,0,0,.1-.52,18.13,18.13,0,0,0,0-2.09,4.16,4.16,0,0,0-1.68-3.11,19.61,19.61,0,0,0-2.22-1.29.84.84,0,0,0-1.32.58,2.27,2.27,0,0,0-.09.63,20.69,20.69,0,0,0,.05,2.08,4.45,4.45,0,0,0,1.21,2.57,1.52,1.52,0,0,0,.78.53c0-.21.07-.38.08-.55,0-.57.05-1.14.08-1.71,0-.13,0-.3.25-.33A11.83,11.83,0,0,1,241.5,137.44Zm-12.26-7.16a11.72,11.72,0,0,1,0-1.35,2.39,2.39,0,0,1,.4-1.28c.27.14.15.32.1.48a4,4,0,0,0-.14,2.16c0,.15.09.35.2.42a12.45,12.45,0,0,0,1.46.78.66.66,0,0,0,.9-.35,2.59,2.59,0,0,0,.23-.92,12.36,12.36,0,0,0,0-1.71,4.27,4.27,0,0,0-2.11-3.63l-1.16-.67a7.25,7.25,0,0,0-.75-.41.79.79,0,0,0-1.16.5,2.59,2.59,0,0,0-.15.78,15.1,15.1,0,0,0,0,1.66,4.68,4.68,0,0,0,1.43,3.14A1.16,1.16,0,0,0,229.24,130.28Zm-2.34,11.66c-.05-.18-.11-.33-.14-.48-.18-1-.36-2-.52-3a.51.51,0,0,0-.3-.46c-.23-.1-.44-.25-.67-.33a.72.72,0,0,0-1,.39,2.49,2.49,0,0,0-.22.87,13.29,13.29,0,0,0,0,1.77,4.23,4.23,0,0,0,1.52,3.15,16.84,16.84,0,0,0,2.53,1.5.75.75,0,0,0,1.13-.46,2.52,2.52,0,0,0,.15-.78c0-.5,0-1,0-1.5a4.68,4.68,0,0,0-1.14-3,4.22,4.22,0,0,0-1.67-1.12c0,.23,0,.39,0,.54.15.83.3,1.65.45,2.48C227.13,141.6,227.24,141.79,226.9,141.93Zm15.71,6.27c.09.15.16.31.26.45l1.56,2.24a1.36,1.36,0,0,1,.21.31c0,.08,0,.19-.06.28l-.12,0L243.41,150c-.35-.48-.65-1-1.08-1.54a2.55,2.55,0,0,0-.14.52,18,18,0,0,0,0,2.62,4,4,0,0,0,1.72,2.86c.65.43,1.35.81,2,1.19a.89.89,0,0,0,1.45-.65,1.4,1.4,0,0,0,0-.32,21.23,21.23,0,0,0,0-2.19,4.06,4.06,0,0,0-1.56-2.95,21,21,0,0,0-2.39-1.42A.71.71,0,0,0,242.61,148.2ZM234,132.7c.13-.2.24-.36.35-.51a3.6,3.6,0,0,1,.37-.45.88.88,0,0,1,1.39.09,3.12,3.12,0,0,1,.46.9c.2.61.34,1.24.5,1.86a.5.5,0,0,0,.8.35,1,1,0,0,0,.39-.42,2.22,2.22,0,0,0,.18-.77,16,16,0,0,0,0-1.87,4.2,4.2,0,0,0-1.59-3.16,17,17,0,0,0-2.4-1.41.8.8,0,0,0-1.22.54,2.12,2.12,0,0,0-.12.63c0,.62,0,1.25,0,1.87A4.47,4.47,0,0,0,234,132.7Zm2.2,15a4.24,4.24,0,0,0,1.83,3.41c.61.37,1.23.72,1.85,1.07a2.17,2.17,0,0,0,.34.16.75.75,0,0,0,1.06-.43,2.52,2.52,0,0,0,.18-.83c0-.48,0-1,0-1.45a4.76,4.76,0,0,0-.93-2.85,4.48,4.48,0,0,0-1.91-1.41c0,.24,0,.41,0,.58,0,.32,0,.64,0,1a1,1,0,0,1-.95,1,3.92,3.92,0,0,1-.8,0A6.44,6.44,0,0,1,236.19,147.67Zm-6.13-4.41h0c0,.25,0,.5,0,.75a4.36,4.36,0,0,0,1.58,3.34,19.46,19.46,0,0,0,2.44,1.45.75.75,0,0,0,.77,0,1.31,1.31,0,0,0,.55-1,.74.74,0,0,0-.38-.79,5.21,5.21,0,0,1-2.17-3.15,6.07,6.07,0,0,1-.27-1.25,1.39,1.39,0,0,0-1-1.31c-.8-.39-1.32-.17-1.49.71A11.49,11.49,0,0,0,230.06,143.26Zm-.62-8.44c0-.37-.05-.63-.11-.89a4.24,4.24,0,0,0-2.18-3.07c-.47-.25-.93-.53-1.39-.8a2.85,2.85,0,0,0-.48-.23.72.72,0,0,0-1,.39,2.49,2.49,0,0,0-.22.87,13.71,13.71,0,0,0,0,1.76,4.65,4.65,0,0,0,1.38,3,5.4,5.4,0,0,0,.64.46c.06-.38.09-.66.14-.94.23-1.32,1.06-1.74,2.24-1.13l.51.29Zm15.61,12.45a4.08,4.08,0,0,0-.11-1.69,10.13,10.13,0,0,1-.37-3.23c.05-.42.14-.84.22-1.28-.38-.22-.74-.45-1.11-.65-.79-.43-1.35-.15-1.5.75a1.54,1.54,0,0,0,0,.27,17.53,17.53,0,0,0,0,2.19A4.3,4.3,0,0,0,245.06,147.27Zm.1-6a4.71,4.71,0,0,0-.26,2.27,18,18,0,0,1,.52,3.75.4.4,0,0,0,.16.3,3.7,3.7,0,0,0,.76.37.67.67,0,0,0,.9-.37,2.69,2.69,0,0,0,.23-.92c0-.51,0-1,0-1.55a4.69,4.69,0,0,0-1.13-3A2.8,2.8,0,0,0,245.15,141.3Zm-4.31-1.83a3,3,0,0,1-2.11,1,31.52,31.52,0,0,0,1.77,4.08.58.58,0,0,0,.65-.28,2.18,2.18,0,0,0,.28-.84,18.8,18.8,0,0,0,0-2.14A3.7,3.7,0,0,0,240.84,139.47Zm-4.75-.14a4.64,4.64,0,0,0,1.9,3.9c.53.36,1.11.65,1.67,1a3.25,3.25,0,0,0,.32.13l-.23-.56c-.35-.8-.76-1.59-1-2.42a1.88,1.88,0,0,0-1.41-1.47A7.41,7.41,0,0,1,236.09,139.33Zm-2.77-4.91c-.63-.36-1.22-.73-1.84-1a.82.82,0,0,0-1.28.58,8,8,0,0,0-.12,1,.48.48,0,0,0,.28.52c.47.29.93.6,1.39.89.27.17.54.32.82.48a.77.77,0,0,0,.11-.17ZM229.46,136c.13-.64-.21-1-.73-1.21-.26-.12-.5-.28-.76-.38a.85.85,0,0,0-1.22.49,3.08,3.08,0,0,0-.25,1.46.42.42,0,0,0,.17.3,15.76,15.76,0,0,0,1.44.81.79.79,0,0,0,1.18-.53A6.8,6.8,0,0,0,229.46,136Zm3.44,1.49a10.25,10.25,0,0,0-.23,2.36.43.43,0,0,0,.24.44c.39.21.76.46,1.16.65a.81.81,0,0,0,1.25-.55,7.12,7.12,0,0,0,.12-1.05.56.56,0,0,0-.35-.64c-.58-.31-1.14-.65-1.71-1C233.24,137.67,233.1,137.61,232.9,137.52Zm3.18,8.9c0,.91,0,.93.93,1.1a1.93,1.93,0,0,0,.42,0,.82.82,0,0,0,.91-.94c0-.46-.06-.92-.12-1.38a.42.42,0,0,0-.16-.25,3.17,3.17,0,0,0-.46-.27.88.88,0,0,0-1.42.69C236.12,145.74,236.12,146.08,236.08,146.42Zm-3.15-4.31c0,1.94,1,4,2.43,4.6C235.76,145,234.56,142.53,232.94,142.1Zm-.66-2.23c.09-.82.19-1.62.25-2.41,0-.11-.13-.28-.25-.36-.62-.41-1.26-.8-1.9-1.2a1.46,1.46,0,0,0-.24-.1C229.85,137.15,231.05,139.57,232.28,139.87Zm3.08-1.4a4,4,0,0,0-1.77-3.8c-.19.73-.37,1.45-.57,2.17-.07.25.08.35.26.46l1.66,1C235.07,138.35,235.21,138.4,235.36,138.47Zm2.46-1.46-.1.07a1.1,1.1,0,0,0,0,.2c.24.8.48,1.6.71,2.4a.48.48,0,0,0,.52.36,1.73,1.73,0,0,0,1.62-1C239.91,138,238.76,137.65,237.82,137Zm-3.56-3.94a10.57,10.57,0,0,0,2.49,1.62,9.06,9.06,0,0,0-.76-2.49,1,1,0,0,0-.16-.21.52.52,0,0,0-.83,0A2.88,2.88,0,0,0,234.25,133.07Zm3.75,6.75.09-.09-.86-3a.76.76,0,0,0-.92.48,2.27,2.27,0,0,0-.17.62c-.15,1-.13,1.07.8,1.51C237.29,139.52,237.65,139.66,238,139.81Zm11.35-26.36c.85.56.71.57,1.54,0l-.77-.45Z"/><path class="cls-34" d="M279.55,133.86c0-.58-.06-1.08-.08-1.58-.05-1.32-.09-2.64-.16-4a.66.66,0,0,1,.37-.69c.89-.54,1.75-1.11,2.64-1.65a4.33,4.33,0,0,1,1-.45,1.11,1.11,0,0,1,1.46.72,4,4,0,0,1,.21,1.52,5.36,5.36,0,0,1-2.54,4.31L280,133.58Z"/><path class="cls-34" d="M269.8,142.54l-3.58,2.26-.08-.07,1.56-6.35.11,0Z"/><path class="cls-34" d="M271.54,109.83l-.46.29c-3.64,2.1-7.28,4.19-10.9,6.31a.83.83,0,0,1-1,0l-20.52-11.86-.51-.31.49-.3c3.62-2.09,7.25-4.18,10.86-6.28a.87.87,0,0,1,1,0L271,109.51Zm-10.28.45-1.51-.89c.32-.23.33-.23.54-.11s.66.36,1,.57a.58.58,0,0,0,.77,0c.1-.08.22-.15.39-.27L260,108.19,256.85,110l2,1.14c.52.3.73.25,1.15-.26l-1.41-.84c.22-.28.41-.19.6-.07l1.29.75Zm-10.79-3.93,2.41,1.39,3.19-1.84-2.41-1.39Zm6.39,0-3.19,1.84a11,11,0,0,0,1,.55,5.11,5.11,0,0,0,1.15.4,3.21,3.21,0,0,0,2.5-.87.65.65,0,0,0-.09-1.12C257.75,106.85,257.29,106.61,256.84,106.35Zm-4-2.3c-.77-.45-1.49-.85-2.19-1.27a.43.43,0,0,0-.49,0l-1.39.81-1.51.87,2.41,1.39,1.19-.7-.77-.45-.44.19-.34-.19-.37-.26a8.52,8.52,0,0,0,1-.58.82.82,0,0,1,1.15,0l.1.09-.23.29.76.43Zm2.39.48,2.4,1.39.8-.48c-.78-.45-1.48-.86-2.2-1.26a.52.52,0,0,0-.39,0A4.6,4.6,0,0,0,255.24,104.53Zm-6.36,3.64-2.38-1.37-.8.47c.67.39,1.3.72,1.89,1.11a.77.77,0,0,0,1,0Zm6.42,3.7-1.62-.94c-.24.2-.54.25-.71.52l1.53.88ZM253.67,110l1.61.93.8-.47-1.61-.93Zm-5.58-4.16-1.61-.93-.8.47,1.61.92Zm17.49,1.86c-.51-.3-1-.56-1.4-.8a.45.45,0,0,0-.34,0,6,6,0,0,0-.62.37,12.53,12.53,0,0,1,1.08.64.75.75,0,0,0,1,0Zm-14.31.91,1.61.93.8-.47-1.61-.93Zm4-5.05c-.46-.27-.86-.49-1.25-.74a.51.51,0,0,0-.68,0c-.12.09-.25.17-.44.3.42.25.8.44,1.15.67a.64.64,0,0,0,.87,0C255,103.75,255.05,103.71,255.23,103.6Zm-1.61-2.77-.79.47a10.33,10.33,0,0,1,1,.62.82.82,0,0,0,1.14,0l.19-.15Zm2.45,10.59,1.61.93.8-.47-1.61-.93Zm-4.79-1.87c-.24.2-.54.24-.72.52l1.54.89.8-.47Zm11.09-1.83c-.4-.23-.79-.44-1.15-.68a.59.59,0,0,0-.77,0c-.11.08-.22.15-.39.27a9.68,9.68,0,0,1,1,.57A.88.88,0,0,0,262.37,107.71Zm-7.13-5a9.84,9.84,0,0,1,1,.62.81.81,0,0,0,1.14,0l.2-.12c-.47-.28-.89-.51-1.28-.76a.5.5,0,0,0-.63,0C255.57,102.49,255.44,102.56,255.24,102.69Zm5.6,3.24c.5.29.94.56,1.39.8a.44.44,0,0,0,.34,0,5.91,5.91,0,0,0,.63-.37,10.16,10.16,0,0,1-1-.61.81.81,0,0,0-1.14,0Zm-2.36.43c.79.55.8.55,1.49,0l-.74-.42-.53.3Zm.78-1.4c.75.58.8.58,1.5,0l-.75-.43ZM252,101.75l-.75.44c.76.53.69.64,1.5,0Zm-2.34,7.82.77-.45c-.79-.56-.85-.56-1.49,0Zm14.31-.88c-.82-.57-.9-.56-1.5,0l.73.41Zm-7.17,4.14c-.74-.59-.94-.59-1.45,0l.7.41Zm-5.61-5.06c-.69-.58-.78-.58-1.49,0l.75.43Zm-3.12-1c.84.57.86.57,1.51,0l-.73-.42Zm-3.19,0,.76-.45c-.81-.56-.82-.56-1.51,0Zm13.51-2.27.76-.45c-.78-.52-.71-.64-1.5,0Z"/><path class="cls-34" d="M251.64,94.63a2.54,2.54,0,0,1,2.84-.15c1.68,1,3.34,1.92,5,2.89l7.38,4.26a2.94,2.94,0,0,1,.53.36.62.62,0,0,1,0,1c-.4.4-.62.42-1.12.13L252.18,95Z"/><path class="cls-34" d="M247.73,114.39a14,14,0,0,1-1.54.81,2.5,2.5,0,0,1-2.21-.26l-8.68-5c-1.24-.71-2.46-1.46-3.72-2.13-.89-.48-.9-1.17,0-1.6.34-.16.66-.49,1-.49s.66.3,1,.49L247.1,114Zm-6.75-3c-1-.59-1.94-1.1-2.83-1.65a.6.6,0,0,0-.77,0c-.1.08-.22.15-.36.25l.45.28c.72.42,1.47.8,2.16,1.26a.83.83,0,0,0,1.14,0A1.72,1.72,0,0,1,241,111.38Z"/><path class="cls-34" d="M252.87,106.8l-.78-.45c.53-.3,1-.57,1.44-.82a.39.39,0,0,1,.3,0c.18.08.34.19.59.34Z"/><path class="cls-34" d="M255.36,108.16l1.49-.87.56.38A1.36,1.36,0,0,1,255.36,108.16Z"/></g></g></g></svg>