<svg xmlns="http://www.w3.org/2000/svg" xmlns:xlink="http://www.w3.org/1999/xlink" viewBox="0 0 1153.48 1187.29"><defs><style>.cls-1{fill:#676d67;}.cls-1,.cls-10,.cls-11,.cls-12,.cls-2,.cls-3,.cls-4,.cls-5,.cls-6,.cls-7,.cls-8,.cls-9{stroke:#000;stroke-width:0.1px;}.cls-2{fill:#7a7c7a;}.cls-3{fill:#5b5e5b;}.cls-4{fill:#4e514e;}.cls-5{fill:#383a38;}.cls-6{fill:#6d706d;}.cls-7{fill:#1e211e;}.cls-8{fill:#474c47;}.cls-9{fill:#88a3a1;}.cls-10{fill:#373a37;}.cls-11{fill:#3f443f;}.cls-12{fill:#5b635b;}.cls-13{fill:#f9413c;}.cls-14{fill:#ef3f3f;}.cls-15{fill:#e04141;}.cls-16{fill:none;stroke:#f9413c;stroke-miterlimit:10;stroke-width:3px;}.cls-17{fill:url(#linear-gradient);}.cls-18{fill:url(#linear-gradient-2);}.cls-19{fill:url(#linear-gradient-3);}.cls-20{fill:url(#linear-gradient-4);}.cls-21{fill:url(#linear-gradient-5);}.cls-22{fill:url(#linear-gradient-6);}.cls-23{fill:url(#linear-gradient-7);}.cls-24{fill:#962c2c;}.cls-25,.cls-26,.cls-27,.cls-28{fill:#fff;}.cls-26{font-size:58.61px;}.cls-26,.cls-27,.cls-28{font-family:November, November;}.cls-27{font-size:46.84px;}.cls-28{font-size:39.28px;}</style><linearGradient id="linear-gradient" x1="500.78" y1="182.25" x2="575.6" y2="182.25" gradientUnits="userSpaceOnUse"><stop offset="0" stop-color="#f9413c"/><stop offset="1" stop-color="#fc5e3c"/></linearGradient><linearGradient id="linear-gradient-2" x1="414.44" y1="331.07" x2="489.26" y2="331.07" xlink:href="#linear-gradient"/><linearGradient id="linear-gradient-3" x1="688.24" y1="293.66" x2="763.06" y2="293.66" xlink:href="#linear-gradient"/><linearGradient id="linear-gradient-4" x1="587.12" y1="231.37" x2="661.94" y2="231.37" xlink:href="#linear-gradient"/><linearGradient id="linear-gradient-5" x1="500.78" y1="368.48" x2="575.6" y2="368.48" xlink:href="#linear-gradient"/><linearGradient id="linear-gradient-6" x1="414.44" y1="529.02" x2="489.26" y2="529.02" xlink:href="#linear-gradient"/><linearGradient id="linear-gradient-7" x1="598.64" y1="443.3" x2="673.46" y2="443.3" xlink:href="#linear-gradient"/></defs><title>home asset</title><g id="Layer_2" data-name="Layer 2"><g id="Layer_2-2" data-name="Layer 2"><g id="Layer_1-2" data-name="Layer 1"><path d="M203.32,874.28,757.69,554.09c17.58-10.07,46.25-10.07,63.71,0l254.06,146.65,78-15.54v71.35c0,6.63-4.33,13.38-13.12,18.35L439.16,1179.69c-17.58,10.07-46.25,10.07-63.71,0L56.79,995.7C48,990.61,43.67,984,43.67,977.35V906Z"/></g><g id="Layer_1-3" data-name="Layer 1"><path d="M203.32,868.42,757.69,548.36c17.58-10.07,46.25-10.07,63.71,0L1075.46,695l78-15.54v71.35c0,6.63-4.33,13.38-13.12,18.35L439.16,1174c-17.58,10.07-46.25,10.07-63.71,0L56.79,990c-8.79-5.1-13.12-11.72-13.12-18.35V900.27Z"/></g><g id="Layer_1-4" data-name="Layer 1"><path d="M203.32,868.42,757.69,548.36c17.58-10.07,46.25-10.07,63.71,0L1075.46,695l78-15.54L439.16,1174c-17.58,10.07-46.25,10.07-63.71,0L56.79,990c-8.79-5.1-13.12-11.72-13.12-18.35V900.27Z"/></g><g id="Layer_1-5" data-name="Layer 1"><path d="M203.32,868.42,451.77,725v441.61L439,1174c-17.58,10.07-46.25,10.07-63.71,0L56.67,990c-8.79-5.1-13.12-11.72-13.12-18.35V900.27Z"/></g><g id="Layer_1-6" data-name="Layer 1"><path d="M203.32,868.42l171-98.74v403.77L56.54,990c-8.79-5.1-13.12-11.72-13.12-18.35V900.27Z"/></g><g id="Layer_1-7" data-name="Layer 1"><path d="M56.67,888.8,757.69,484c17.58-10.07,46.25-10.07,63.71,0l318.79,184c17.58,10.07,17.58,26.63,0,36.82L439,1109.61c-17.58,10.07-46.25,10.07-63.71,0l-318.66-184C39.08,915.43,39.08,898.87,56.67,888.8Z"/></g><g id="Layer_1-8" data-name="Layer 1"><path d="M56.67,881.92l701-404.79c17.58-10.07,46.25-10.07,63.71,0l318.79,184c17.58,10.07,17.58,26.63,0,36.82L439,1102.73c-17.58,10.07-46.25,10.07-63.71,0l-318.66-184C39.08,908.55,39.08,892,56.67,881.92Z"/></g><g id="Layer_1-9" data-name="Layer 1"><path d="M707.11,537.91c17.58-10.07,46.25-10.07,63.71,0l254.06,146.65,77.85,33.13v22.68c0,6.63-4.33,13.38-13.12,18.35L470,1116.36v-438h-6.24Z"/></g><g id="Layer_1-10" data-name="Layer 1"><path d="M56.67,881.92l701-404.79c17.58-10.07,46.25-10.07,63.71,0L439,1102.73c-17.58,10.07-46.25,10.07-63.71,0l-318.66-184C39.08,908.55,39.08,892,56.67,881.92Z"/></g><g id="Layer_1-11" data-name="Layer 1"><path d="M350.85,1119.93c1.78-3.06,4.33-4.84,7-4.84s5.22,1.66,7,4.84a22.21,22.21,0,0,1,2.55,10.45,20.8,20.8,0,0,1-2.55,10.45c-1.78,3.06-4.33,4.84-7,4.84s-5.22-1.78-7-4.84C347.54,1135.09,347.54,1125.54,350.85,1119.93Z"/></g><g id="Layer_1-12" data-name="Layer 1"><path d="M352.89,1120.18c1.78-3.06,4.2-4.84,7-4.84a9.9,9.9,0,0,1,5.1,4.46,22.21,22.21,0,0,1,2.55,10.45A20.8,20.8,0,0,1,365,1140.7c-1.78,3.06-4.2,4.71-7,4.84a9.9,9.9,0,0,1-5.1-4.46C349.57,1135.47,349.57,1125.92,352.89,1120.18Z"/></g><g id="Layer_1-13" data-name="Layer 1"><path d="M138.59,990.48a3.68,3.68,0,0,1,3.19-2.17,4,4,0,0,1,3.19,2.17,10.26,10.26,0,0,1,0,9.43,3.43,3.43,0,0,1-6.37,0A11.1,11.1,0,0,1,138.59,990.48Z"/></g><g id="Layer_1-14" data-name="Layer 1"><path d="M139.48,990.61a3.68,3.68,0,0,1,3.19-2.17,4.35,4.35,0,0,1,2.29,2,10.26,10.26,0,0,1,0,9.43,3.68,3.68,0,0,1-3.19,2.17,4.35,4.35,0,0,1-2.29-2A11.1,11.1,0,0,1,139.48,990.61Z"/></g><g id="Layer_1-15" data-name="Layer 1"><path d="M123.94,981.3a3.68,3.68,0,0,1,3.19-2.17c1.27,0,2.29.76,3.19,2.17a10.26,10.26,0,0,1,0,9.43,3.43,3.43,0,0,1-6.37,0A10.26,10.26,0,0,1,123.94,981.3Z"/></g><g id="Layer_1-16" data-name="Layer 1"><path d="M124.83,981.43a3.68,3.68,0,0,1,3.19-2.17,4.35,4.35,0,0,1,2.29,2,10.26,10.26,0,0,1,0,9.43,3.68,3.68,0,0,1-3.19,2.17,4.35,4.35,0,0,1-2.29-2A10.26,10.26,0,0,1,124.83,981.43Z"/></g><g id="Layer_1-17" data-name="Layer 1"><path d="M109.16,972.13a3.68,3.68,0,0,1,3.19-2.17c1.27,0,2.29.76,3.19,2.17a10.26,10.26,0,0,1,0,9.43,3.43,3.43,0,0,1-6.37,0A10.26,10.26,0,0,1,109.16,972.13Z"/></g><g id="Layer_1-18" data-name="Layer 1"><path d="M110.05,972.26a3.68,3.68,0,0,1,3.19-2.17,4.35,4.35,0,0,1,2.29,2,10.26,10.26,0,0,1,0,9.43,3.68,3.68,0,0,1-3.19,2.17,4.35,4.35,0,0,1-2.29-2A11.1,11.1,0,0,1,110.05,972.26Z"/></g><g id="Layer_1-19" data-name="Layer 1"><path d="M94.38,963a3.68,3.68,0,0,1,3.19-2.17c1.27,0,2.29.76,3.19,2.17a9.23,9.23,0,0,1,1.15,4.71,8.44,8.44,0,0,1-1.15,4.59,3.43,3.43,0,0,1-6.37,0A10.81,10.81,0,0,1,94.38,963Z"/></g><g id="Layer_1-20" data-name="Layer 1"><path d="M95.4,963.08a3.68,3.68,0,0,1,3.19-2.17,4.35,4.35,0,0,1,2.29,2,9.23,9.23,0,0,1,1.15,4.71,8.44,8.44,0,0,1-1.15,4.59,3.68,3.68,0,0,1-3.19,2.17,4.35,4.35,0,0,1-2.29-2A10,10,0,0,1,95.4,963.08Z"/></g><g id="Layer_1-21" data-name="Layer 1"><path d="M79.73,953.78a3.68,3.68,0,0,1,3.19-2.17c1.27,0,2.29.76,3.19,2.17a10.26,10.26,0,0,1,0,9.43,3.43,3.43,0,0,1-6.37,0A10.26,10.26,0,0,1,79.73,953.78Z"/></g><g id="Layer_1-22" data-name="Layer 1"><path d="M80.62,953.91a3.68,3.68,0,0,1,3.19-2.17,4.35,4.35,0,0,1,2.29,2,10.26,10.26,0,0,1,0,9.43,3.68,3.68,0,0,1-3.19,2.17,4.35,4.35,0,0,1-2.29-2A11.1,11.1,0,0,1,80.62,953.91Z"/></g><g id="Layer_1-23" data-name="Layer 1"><path d="M64.95,944.61a3.68,3.68,0,0,1,3.19-2.17c1.27,0,2.29.76,3.19,2.17a10.26,10.26,0,0,1,0,9.43,3.43,3.43,0,0,1-6.37,0A11.1,11.1,0,0,1,64.95,944.61Z"/></g><g id="Layer_1-24" data-name="Layer 1"><path d="M65.84,944.74A3.68,3.68,0,0,1,69,942.57a4.35,4.35,0,0,1,2.29,2,10.26,10.26,0,0,1,0,9.43,3.68,3.68,0,0,1-3.19,2.17,4.35,4.35,0,0,1-2.29-2A11.1,11.1,0,0,1,65.84,944.74Z"/></g><g id="Layer_1-25" data-name="Layer 1"><path d="M138.59,1013.54a3.68,3.68,0,0,1,3.19-2.17,4,4,0,0,1,3.19,2.17,10.26,10.26,0,0,1,0,9.43,3.43,3.43,0,0,1-6.37,0A11.09,11.09,0,0,1,138.59,1013.54Z"/></g><g id="Layer_1-26" data-name="Layer 1"><path d="M139.48,1013.67a3.68,3.68,0,0,1,3.19-2.17,4.35,4.35,0,0,1,2.29,2,10.26,10.26,0,0,1,0,9.43,3.68,3.68,0,0,1-3.19,2.17,4.35,4.35,0,0,1-2.29-2A11.1,11.1,0,0,1,139.48,1013.67Z"/></g><g id="Layer_1-27" data-name="Layer 1"><path d="M123.94,1004.37a3.68,3.68,0,0,1,3.19-2.17c1.27,0,2.29.76,3.19,2.17a10.26,10.26,0,0,1,0,9.43,3.43,3.43,0,0,1-6.37,0A10.26,10.26,0,0,1,123.94,1004.37Z"/></g><g id="Layer_1-28" data-name="Layer 1"><path d="M124.83,1004.49a3.68,3.68,0,0,1,3.19-2.17,4.35,4.35,0,0,1,2.29,2,10.26,10.26,0,0,1,0,9.43,3.68,3.68,0,0,1-3.19,2.17,4.35,4.35,0,0,1-2.29-2A10.26,10.26,0,0,1,124.83,1004.49Z"/></g><g id="Layer_1-29" data-name="Layer 1"><path d="M109.16,995.19a3.68,3.68,0,0,1,3.19-2.17c1.27,0,2.29.76,3.19,2.17a10.26,10.26,0,0,1,0,9.43,3.43,3.43,0,0,1-6.37,0A10.26,10.26,0,0,1,109.16,995.19Z"/></g><g id="Layer_1-30" data-name="Layer 1"><path d="M110.05,995.32a3.68,3.68,0,0,1,3.19-2.17,4.35,4.35,0,0,1,2.29,2,10.26,10.26,0,0,1,0,9.43,3.68,3.68,0,0,1-3.19,2.17,4.35,4.35,0,0,1-2.29-2A11.1,11.1,0,0,1,110.05,995.32Z"/></g><g id="Layer_1-31" data-name="Layer 1"><path d="M94.38,986a3.68,3.68,0,0,1,3.19-2.17c1.27,0,2.29.76,3.19,2.17a10.26,10.26,0,0,1,0,9.43,3.43,3.43,0,0,1-6.37,0A11.1,11.1,0,0,1,94.38,986Z"/></g><g id="Layer_1-32" data-name="Layer 1"><path d="M95.4,986.15A3.68,3.68,0,0,1,98.58,984a4.35,4.35,0,0,1,2.29,2,10.26,10.26,0,0,1,0,9.43,3.68,3.68,0,0,1-3.19,2.17,4.35,4.35,0,0,1-2.29-2A10.26,10.26,0,0,1,95.4,986.15Z"/></g><g id="Layer_1-33" data-name="Layer 1"><path d="M79.73,976.85a3.68,3.68,0,0,1,3.19-2.17c1.27,0,2.29.76,3.19,2.17a10.26,10.26,0,0,1,0,9.43,3.43,3.43,0,0,1-6.37,0A10.26,10.26,0,0,1,79.73,976.85Z"/></g><g id="Layer_1-34" data-name="Layer 1"><path d="M80.62,977a3.68,3.68,0,0,1,3.19-2.17,4.35,4.35,0,0,1,2.29,2,10.26,10.26,0,0,1,0,9.43,3.68,3.68,0,0,1-3.19,2.17,4.35,4.35,0,0,1-2.29-2A11.1,11.1,0,0,1,80.62,977Z"/></g><g id="Layer_1-35" data-name="Layer 1"><path d="M64.95,967.67a3.68,3.68,0,0,1,3.19-2.17c1.27,0,2.29.76,3.19,2.17a10.26,10.26,0,0,1,0,9.43,3.43,3.43,0,0,1-6.37,0A11.1,11.1,0,0,1,64.95,967.67Z"/></g><g id="Layer_1-36" data-name="Layer 1"><path d="M65.84,967.8A3.68,3.68,0,0,1,69,965.63a4.35,4.35,0,0,1,2.29,2,10.26,10.26,0,0,1,0,9.43,3.68,3.68,0,0,1-3.19,2.17,4.35,4.35,0,0,1-2.29-2A11.1,11.1,0,0,1,65.84,967.8Z"/></g><g id="Layer_1-37" data-name="Layer 1"><ellipse cx="798.72" cy="511.41" rx="15.16" ry="8.79"/></g><g id="Layer_1-38" data-name="Layer 1"><path d="M895.3,556.89c4.84-2.8,12.74-2.8,17.58,0l70.46,40.64c4.84,2.8,4.84,7.39,0,10.19s-12.74,2.8-17.58,0L895.3,567.09C890.45,564.28,890.45,559.7,895.3,556.89Z"/></g><g id="Layer_1-39" data-name="Layer 1"><path d="M895.3,551.92c4.84-2.8,12.74-2.8,17.58,0l70.46,40.64c4.84,2.8,4.84,7.39,0,10.19s-12.74,2.8-17.58,0L895.3,562.12C890.45,559.31,890.45,554.73,895.3,551.92Z"/></g><g id="Layer_1-40" data-name="Layer 1"><path d="M913,551.92l68.8,39.75c-4.84,2-11.59,2.17-15.93-.38l-68.8-39.75C901.92,549.5,908.55,549.5,913,551.92Z"/></g><g id="Layer_1-41" data-name="Layer 1"><polygon points="178.85 1013.54 235.04 1046.03 236.83 1048.83 236.83 1067.56 231.86 1070.37 175.54 1037.88 173.88 1035.07 173.88 1016.34 178.85 1013.54"/></g><g id="Layer_1-42" data-name="Layer 1"><path d="M180.38,1010.61l56.32,32.49,3.31,5.73v18.73l-9.81,5.73-56.32-32.62-3.31-5.73v-18.73Zm-3.19,24.46,56.32,32.49v-18.73l-56.32-32.49Z"/></g><g id="Layer_1-43" data-name="Layer 1"><polygon points="723.54 498.67 1102.72 717.69 470.76 1082.47 91.58 863.58 723.54 498.67"/></g><g id="Layer_1-44" data-name="Layer 1"><polygon points="723.54 498.67 470.76 1082.47 91.58 863.58 723.54 498.67"/></g><g id="Layer_1-45" data-name="Layer 1"><path d="M192.23,953a22.46,22.46,0,0,1,11.21-2.68A23.89,23.89,0,0,1,214.66,953l80.91,46.76c3.44,1.91,5.22,4.71,5.22,7.77s-1.91,5.73-5.22,7.77a22.46,22.46,0,0,1-11.21,2.68,23.89,23.89,0,0,1-11.21-2.68l-80.91-46.76c-3.31-1.91-5.22-4.71-5.22-7.77S188.79,954.93,192.23,953Z"/></g><g id="Layer_1-46" data-name="Layer 1"><path class="cls-1" d="M203.32,874.28,757.69,554.09c17.58-10.07,46.25-10.07,63.71,0l254.06,146.65,78-15.54v71.35c0,6.63-4.33,13.38-13.12,18.35L439.16,1179.69c-17.58,10.07-46.25,10.07-63.71,0L56.79,995.7C48,990.61,43.67,984,43.67,977.35V906Z"/></g><g id="Layer_1-47" data-name="Layer 1"><path class="cls-2" d="M203.32,868.42,757.69,548.36c17.58-10.07,46.25-10.07,63.71,0L1075.46,695l78-15.54v71.35c0,6.63-4.33,13.38-13.12,18.35L439.16,1174c-17.58,10.07-46.25,10.07-63.71,0L56.79,990c-8.79-5.1-13.12-11.72-13.12-18.35V900.27Z"/></g><g id="Layer_1-48" data-name="Layer 1"><path class="cls-3" d="M203.32,868.42,757.69,548.36c17.58-10.07,46.25-10.07,63.71,0L1075.46,695l78-15.54L439.16,1174c-17.58,10.07-46.25,10.07-63.71,0L56.79,990c-8.79-5.1-13.12-11.72-13.12-18.35V900.27Z"/></g><g id="Layer_1-49" data-name="Layer 1"><path class="cls-4" d="M203.32,868.42,451.77,725v441.61L439,1174c-17.58,10.07-46.25,10.07-63.71,0L56.67,990c-8.79-5.1-13.12-11.72-13.12-18.35V900.27Z"/></g><g id="Layer_1-50" data-name="Layer 1"><path class="cls-5" d="M203.32,868.42l171-98.74v403.77L56.54,990c-8.79-5.1-13.12-11.72-13.12-18.35V900.27Z"/></g><g id="Layer_1-51" data-name="Layer 1"><path class="cls-6" d="M56.67,888.8,757.69,484c17.58-10.07,46.25-10.07,63.71,0l318.79,184c17.58,10.07,17.58,26.63,0,36.82L439,1109.61c-17.58,10.07-46.25,10.07-63.71,0l-318.66-184C39.08,915.43,39.08,898.87,56.67,888.8Z"/></g><g id="Layer_1-52" data-name="Layer 1"><path class="cls-3" d="M56.67,881.92l701-404.79c17.58-10.07,46.25-10.07,63.71,0l318.79,184c17.58,10.07,17.58,26.63,0,36.82L439,1102.73c-17.58,10.07-46.25,10.07-63.71,0l-318.66-184C39.08,908.55,39.08,892,56.67,881.92Z"/></g><g id="Layer_1-53" data-name="Layer 1"><path class="cls-7" d="M707.11,537.91c17.58-10.07,46.25-10.07,63.71,0l254.06,146.65,77.85,33.13v22.68c0,6.63-4.33,13.38-13.12,18.35L470,1116.36v-438h-6.24Z"/></g><g id="Layer_1-54" data-name="Layer 1"><path class="cls-8" d="M56.67,881.92l701-404.79c17.58-10.07,46.25-10.07,63.71,0L439,1102.73c-17.58,10.07-46.25,10.07-63.71,0l-318.66-184C39.08,908.55,39.08,892,56.67,881.92Z"/></g><g id="Layer_1-55" data-name="Layer 1"><path class="cls-9" d="M350.85,1119.93c1.78-3.06,4.33-4.84,7-4.84s5.22,1.66,7,4.84a22.21,22.21,0,0,1,2.55,10.45,20.8,20.8,0,0,1-2.55,10.45c-1.78,3.06-4.33,4.84-7,4.84s-5.22-1.78-7-4.84C347.54,1135.09,347.54,1125.54,350.85,1119.93Z"/></g><g id="Layer_1-56" data-name="Layer 1"><path class="cls-7" d="M352.89,1120.18c1.78-3.06,4.2-4.84,7-4.84a9.9,9.9,0,0,1,5.1,4.46,22.21,22.21,0,0,1,2.55,10.45A20.8,20.8,0,0,1,365,1140.7c-1.78,3.06-4.2,4.71-7,4.84a9.9,9.9,0,0,1-5.1-4.46C349.57,1135.47,349.57,1125.92,352.89,1120.18Z"/></g><g id="Layer_1-57" data-name="Layer 1"><path class="cls-9" d="M138.59,990.48a3.68,3.68,0,0,1,3.19-2.17,4,4,0,0,1,3.19,2.17,10.26,10.26,0,0,1,0,9.43,3.43,3.43,0,0,1-6.37,0A11.1,11.1,0,0,1,138.59,990.48Z"/></g><g id="Layer_1-58" data-name="Layer 1"><path class="cls-7" d="M139.48,990.61a3.68,3.68,0,0,1,3.19-2.17,4.35,4.35,0,0,1,2.29,2,10.26,10.26,0,0,1,0,9.43,3.68,3.68,0,0,1-3.19,2.17,4.35,4.35,0,0,1-2.29-2A11.1,11.1,0,0,1,139.48,990.61Z"/></g><g id="Layer_1-59" data-name="Layer 1"><path class="cls-9" d="M123.94,981.3a3.68,3.68,0,0,1,3.19-2.17c1.27,0,2.29.76,3.19,2.17a10.26,10.26,0,0,1,0,9.43,3.43,3.43,0,0,1-6.37,0A10.26,10.26,0,0,1,123.94,981.3Z"/></g><g id="Layer_1-60" data-name="Layer 1"><path class="cls-7" d="M124.83,981.43a3.68,3.68,0,0,1,3.19-2.17,4.35,4.35,0,0,1,2.29,2,10.26,10.26,0,0,1,0,9.43,3.68,3.68,0,0,1-3.19,2.17,4.35,4.35,0,0,1-2.29-2A10.26,10.26,0,0,1,124.83,981.43Z"/></g><g id="Layer_1-61" data-name="Layer 1"><path class="cls-9" d="M109.16,972.13a3.68,3.68,0,0,1,3.19-2.17c1.27,0,2.29.76,3.19,2.17a10.26,10.26,0,0,1,0,9.43,3.43,3.43,0,0,1-6.37,0A10.26,10.26,0,0,1,109.16,972.13Z"/></g><g id="Layer_1-62" data-name="Layer 1"><path class="cls-7" d="M110.05,972.26a3.68,3.68,0,0,1,3.19-2.17,4.35,4.35,0,0,1,2.29,2,10.26,10.26,0,0,1,0,9.43,3.68,3.68,0,0,1-3.19,2.17,4.35,4.35,0,0,1-2.29-2A11.1,11.1,0,0,1,110.05,972.26Z"/></g><g id="Layer_1-63" data-name="Layer 1"><path class="cls-9" d="M94.38,963a3.68,3.68,0,0,1,3.19-2.17c1.27,0,2.29.76,3.19,2.17a9.23,9.23,0,0,1,1.15,4.71,8.44,8.44,0,0,1-1.15,4.59,3.43,3.43,0,0,1-6.37,0A10.81,10.81,0,0,1,94.38,963Z"/></g><g id="Layer_1-64" data-name="Layer 1"><path class="cls-7" d="M95.4,963.08a3.68,3.68,0,0,1,3.19-2.17,4.35,4.35,0,0,1,2.29,2,9.23,9.23,0,0,1,1.15,4.71,8.44,8.44,0,0,1-1.15,4.59,3.68,3.68,0,0,1-3.19,2.17,4.35,4.35,0,0,1-2.29-2A10,10,0,0,1,95.4,963.08Z"/></g><g id="Layer_1-65" data-name="Layer 1"><path class="cls-9" d="M79.73,953.78a3.68,3.68,0,0,1,3.19-2.17c1.27,0,2.29.76,3.19,2.17a10.26,10.26,0,0,1,0,9.43,3.43,3.43,0,0,1-6.37,0A10.26,10.26,0,0,1,79.73,953.78Z"/></g><g id="Layer_1-66" data-name="Layer 1"><path class="cls-7" d="M80.62,953.91a3.68,3.68,0,0,1,3.19-2.17,4.35,4.35,0,0,1,2.29,2,10.26,10.26,0,0,1,0,9.43,3.68,3.68,0,0,1-3.19,2.17,4.35,4.35,0,0,1-2.29-2A11.1,11.1,0,0,1,80.62,953.91Z"/></g><g id="Layer_1-67" data-name="Layer 1"><path class="cls-9" d="M64.95,944.61a3.68,3.68,0,0,1,3.19-2.17c1.27,0,2.29.76,3.19,2.17a10.26,10.26,0,0,1,0,9.43,3.43,3.43,0,0,1-6.37,0A11.1,11.1,0,0,1,64.95,944.61Z"/></g><g id="Layer_1-68" data-name="Layer 1"><path class="cls-7" d="M65.84,944.74A3.68,3.68,0,0,1,69,942.57a4.35,4.35,0,0,1,2.29,2,10.26,10.26,0,0,1,0,9.43,3.68,3.68,0,0,1-3.19,2.17,4.35,4.35,0,0,1-2.29-2A11.1,11.1,0,0,1,65.84,944.74Z"/></g><g id="Layer_1-69" data-name="Layer 1"><path class="cls-9" d="M138.59,1013.54a3.68,3.68,0,0,1,3.19-2.17,4,4,0,0,1,3.19,2.17,10.26,10.26,0,0,1,0,9.43,3.43,3.43,0,0,1-6.37,0A11.09,11.09,0,0,1,138.59,1013.54Z"/></g><g id="Layer_1-70" data-name="Layer 1"><path class="cls-7" d="M139.48,1013.67a3.68,3.68,0,0,1,3.19-2.17,4.35,4.35,0,0,1,2.29,2,10.26,10.26,0,0,1,0,9.43,3.68,3.68,0,0,1-3.19,2.17,4.35,4.35,0,0,1-2.29-2A11.1,11.1,0,0,1,139.48,1013.67Z"/></g><g id="Layer_1-71" data-name="Layer 1"><path class="cls-9" d="M123.94,1004.37a3.68,3.68,0,0,1,3.19-2.17c1.27,0,2.29.76,3.19,2.17a10.26,10.26,0,0,1,0,9.43,3.43,3.43,0,0,1-6.37,0A10.26,10.26,0,0,1,123.94,1004.37Z"/></g><g id="Layer_1-72" data-name="Layer 1"><path class="cls-7" d="M124.83,1004.49a3.68,3.68,0,0,1,3.19-2.17,4.35,4.35,0,0,1,2.29,2,10.26,10.26,0,0,1,0,9.43,3.68,3.68,0,0,1-3.19,2.17,4.35,4.35,0,0,1-2.29-2A10.26,10.26,0,0,1,124.83,1004.49Z"/></g><g id="Layer_1-73" data-name="Layer 1"><path class="cls-9" d="M109.16,995.19a3.68,3.68,0,0,1,3.19-2.17c1.27,0,2.29.76,3.19,2.17a10.26,10.26,0,0,1,0,9.43,3.43,3.43,0,0,1-6.37,0A10.26,10.26,0,0,1,109.16,995.19Z"/></g><g id="Layer_1-74" data-name="Layer 1"><path class="cls-7" d="M110.05,995.32a3.68,3.68,0,0,1,3.19-2.17,4.35,4.35,0,0,1,2.29,2,10.26,10.26,0,0,1,0,9.43,3.68,3.68,0,0,1-3.19,2.17,4.35,4.35,0,0,1-2.29-2A11.1,11.1,0,0,1,110.05,995.32Z"/></g><g id="Layer_1-75" data-name="Layer 1"><path class="cls-9" d="M94.38,986a3.68,3.68,0,0,1,3.19-2.17c1.27,0,2.29.76,3.19,2.17a10.26,10.26,0,0,1,0,9.43,3.43,3.43,0,0,1-6.37,0A11.1,11.1,0,0,1,94.38,986Z"/></g><g id="Layer_1-76" data-name="Layer 1"><path class="cls-7" d="M95.4,986.15A3.68,3.68,0,0,1,98.58,984a4.35,4.35,0,0,1,2.29,2,10.26,10.26,0,0,1,0,9.43,3.68,3.68,0,0,1-3.19,2.17,4.35,4.35,0,0,1-2.29-2A10.26,10.26,0,0,1,95.4,986.15Z"/></g><g id="Layer_1-77" data-name="Layer 1"><path class="cls-9" d="M79.73,976.85a3.68,3.68,0,0,1,3.19-2.17c1.27,0,2.29.76,3.19,2.17a10.26,10.26,0,0,1,0,9.43,3.43,3.43,0,0,1-6.37,0A10.26,10.26,0,0,1,79.73,976.85Z"/></g><g id="Layer_1-78" data-name="Layer 1"><path class="cls-7" d="M80.62,977a3.68,3.68,0,0,1,3.19-2.17,4.35,4.35,0,0,1,2.29,2,10.26,10.26,0,0,1,0,9.43,3.68,3.68,0,0,1-3.19,2.17,4.35,4.35,0,0,1-2.29-2A11.1,11.1,0,0,1,80.62,977Z"/></g><g id="Layer_1-79" data-name="Layer 1"><path class="cls-9" d="M64.95,967.67a3.68,3.68,0,0,1,3.19-2.17c1.27,0,2.29.76,3.19,2.17a10.26,10.26,0,0,1,0,9.43,3.43,3.43,0,0,1-6.37,0A11.1,11.1,0,0,1,64.95,967.67Z"/></g><g id="Layer_1-80" data-name="Layer 1"><path class="cls-7" d="M65.84,967.8A3.68,3.68,0,0,1,69,965.63a4.35,4.35,0,0,1,2.29,2,10.26,10.26,0,0,1,0,9.43,3.68,3.68,0,0,1-3.19,2.17,4.35,4.35,0,0,1-2.29-2A11.1,11.1,0,0,1,65.84,967.8Z"/></g><g id="Layer_1-81" data-name="Layer 1"><ellipse class="cls-10" cx="798.72" cy="511.41" rx="15.16" ry="8.79"/></g><g id="Layer_1-82" data-name="Layer 1"><path class="cls-7" d="M895.3,556.89c4.84-2.8,12.74-2.8,17.58,0l70.46,40.64c4.84,2.8,4.84,7.39,0,10.19s-12.74,2.8-17.58,0L895.3,567.09C890.45,564.28,890.45,559.7,895.3,556.89Z"/></g><g id="Layer_1-83" data-name="Layer 1"><path class="cls-10" d="M895.3,551.92c4.84-2.8,12.74-2.8,17.58,0l70.46,40.64c4.84,2.8,4.84,7.39,0,10.19s-12.74,2.8-17.58,0L895.3,562.12C890.45,559.31,890.45,554.73,895.3,551.92Z"/></g><g id="Layer_1-84" data-name="Layer 1"><path class="cls-11" d="M913,551.92l68.8,39.75c-4.84,2-11.59,2.17-15.93-.38l-68.8-39.75C901.92,549.5,908.55,549.5,913,551.92Z"/></g><g id="Layer_1-85" data-name="Layer 1"><polygon class="cls-7" points="178.85 1013.54 235.04 1046.03 236.83 1048.83 236.83 1067.56 231.86 1070.37 175.54 1037.88 173.88 1035.07 173.88 1016.34 178.85 1013.54"/></g><g id="Layer_1-86" data-name="Layer 1"><path class="cls-12" d="M180.38,1010.61l56.32,32.49,3.31,5.73v18.73l-9.81,5.73-56.32-32.62-3.31-5.73v-18.73Zm-3.19,24.46,56.32,32.49v-18.73l-56.32-32.49Z"/></g><g id="Layer_1-87" data-name="Layer 1"><polygon class="cls-10" points="723.54 498.67 1102.72 717.69 470.76 1082.47 91.58 863.58 723.54 498.67"/></g><g id="Layer_1-88" data-name="Layer 1"><polygon class="cls-7" points="723.54 498.67 470.76 1082.47 91.58 863.58 723.54 498.67"/></g><g id="Layer_1-89" data-name="Layer 1"><path class="cls-7" d="M192.23,953a22.46,22.46,0,0,1,11.21-2.68A23.89,23.89,0,0,1,214.66,953l80.91,46.76c3.44,1.91,5.22,4.71,5.22,7.77s-1.91,5.73-5.22,7.77a22.46,22.46,0,0,1-11.21,2.68,23.89,23.89,0,0,1-11.21-2.68l-80.91-46.76c-3.31-1.91-5.22-4.71-5.22-7.77S188.79,954.93,192.23,953Z"/></g></g><g id="Layer_1-90" data-name="Layer 1"><polygon class="cls-13" points="956.68 663.45 862.65 609.16 956 555.27 1050.03 609.56 956.68 663.45"/><polygon class="cls-14" points="1050.37 621.34 956.34 675.63 956.34 663.65 1050.37 609.36 1050.37 621.34"/><polygon class="cls-15" points="956.68 675.63 862.65 621.34 862.65 609.36 956.68 663.65 956.68 675.63"/><polygon class="cls-13" points="956.85 636.97 862.82 582.68 956.17 528.79 1050.2 583.08 956.85 636.97"/><polygon class="cls-14" points="1050.54 594.86 956.51 649.14 956.51 637.17 1050.54 582.88 1050.54 594.86"/><polygon class="cls-15" points="956.85 649.14 862.82 594.86 862.82 582.88 956.85 637.17 956.85 649.14"/><polygon class="cls-13" points="957.02 608.25 862.99 553.97 956.34 500.07 1050.37 554.36 957.02 608.25"/><polygon class="cls-14" points="1050.71 566.14 956.68 620.43 956.68 608.45 1050.71 554.16 1050.71 566.14"/><polygon class="cls-15" points="957.02 620.43 862.99 566.14 862.99 554.16 957.02 608.45 957.02 620.43"/><polygon class="cls-13" points="956.51 576.79 862.48 522.5 955.83 468.61 1049.86 522.9 956.51 576.79"/><polygon class="cls-14" points="1050.2 534.68 956.17 588.97 956.17 576.99 1050.2 522.7 1050.2 534.68"/><polygon class="cls-15" points="956.51 588.97 862.48 534.68 862.48 522.7 956.51 576.99 956.51 588.97"/><polyline class="cls-16" points="451.85 331.07 538.19 182.25 624.53 231.37"/><polyline class="cls-16" points="538.19 380.2 624.53 231.37 710.87 280.5"/><polyline class="cls-16" points="451.85 529.02 538.19 380.2 624.53 429.32"/><circle class="cls-17" cx="538.19" cy="182.25" r="37.41"/><circle class="cls-18" cx="451.85" cy="331.07" r="37.41"/><circle class="cls-19" cx="725.65" cy="293.66" r="37.41"/><circle class="cls-20" cx="624.53" cy="231.37" r="37.41"/><circle class="cls-21" cx="538.19" cy="368.48" r="37.41"/><circle class="cls-22" cx="451.85" cy="529.02" r="37.41"/><circle class="cls-23" cx="636.05" cy="443.3" r="37.41"/><polygon class="cls-15" points="723.7 662.44 661.06 626.28 661.06 554.48 723.7 590.64 723.7 662.44"/><polygon class="cls-14" points="786.11 626.28 723.47 662.44 723.47 590.64 786.11 554.48 786.11 626.28"/><polygon class="cls-13" points="723.7 590.51 661.06 554.34 723.25 518.44 785.88 554.61 723.7 590.51"/><polygon class="cls-15" points="629.97 716.99 567.33 680.83 567.33 609.02 629.97 645.19 629.97 716.99"/><polygon class="cls-14" points="692.38 680.83 629.74 716.99 629.74 645.19 692.38 609.02 692.38 680.83"/><polygon class="cls-13" points="629.97 645.05 567.33 608.89 629.52 572.99 692.15 609.15 629.97 645.05"/><polygon class="cls-15" points="536.24 779.93 473.6 743.76 473.6 671.96 536.24 708.13 536.24 779.93"/><polygon class="cls-14" points="598.65 743.76 536.01 779.93 536.01 708.13 598.65 671.96 598.65 743.76"/><polygon class="cls-13" points="536.24 707.99 473.6 671.83 535.79 635.93 598.42 672.09 536.24 707.99"/><polygon class="cls-15" points="442.51 851.93 379.87 815.76 379.87 743.96 442.51 780.13 442.51 851.93"/><polygon class="cls-14" points="504.92 815.76 442.29 851.93 442.29 780.13 504.92 743.96 504.92 815.76"/><polygon class="cls-13" points="442.51 779.99 379.87 743.83 442.06 707.93 504.69 744.09 442.51 779.99"/><polygon class="cls-15" points="348.78 923.93 286.14 887.76 286.14 815.96 348.78 852.13 348.78 923.93"/><polygon class="cls-14" points="411.19 887.76 348.56 923.93 348.56 852.13 411.19 815.96 411.19 887.76"/><polygon class="cls-13" points="348.78 851.99 286.14 815.83 348.33 779.93 410.97 816.09 348.78 851.99"/><polygon class="cls-15" points="255.05 995.93 192.41 959.76 192.41 887.96 255.05 924.13 255.05 995.93"/><polygon class="cls-14" points="317.46 959.76 254.83 995.93 254.83 924.13 317.46 887.96 317.46 959.76"/><polygon class="cls-13" points="255.05 923.99 192.41 887.83 254.6 851.93 317.24 888.09 255.05 923.99"/></g><g id="Layer_4" data-name="Layer 4"><path class="cls-24" d="M255.22,670.81,21.64,805.67c-10.12,5.84-18.62,20-21,33.91L276.21,680.49C273.84,669.33,265.34,665,255.22,670.81Z"/><path class="cls-14" d="M.66,839.58A18.4,18.4,0,0,0,0,844.25v72.14c0,9.67,9.69,11.91,21.64,5L255.22,786.54c12-6.9,21.64-20.33,21.64-30V684.4a11,11,0,0,0-.66-3.91Z"/><polygon class="cls-25" points="133.07 782.85 16.57 850.11 16.57 858.13 133.07 790.86 133.07 782.85"/><polygon class="cls-25" points="173.53 772.92 16.57 863.54 16.57 871.56 173.53 780.94 173.53 772.92"/><polygon class="cls-25" points="147.08 801.62 16.57 876.97 16.57 884.99 147.08 809.64 147.08 801.62"/><polygon class="cls-25" points="141.04 818.54 16.57 890.4 16.57 898.42 141.04 826.56 141.04 818.54"/><path class="cls-24" d="M850,1.07,702,86.57c-6.42,3.7-11.8,16.08-13.3,29.47L863.34,15.19C861.84,3.53,856.45-2.63,850,1.07Z"/><path class="cls-14" d="M688.66,116a27.62,27.62,0,0,0-.42,4.68v74.54c0,10,6.14,14.54,13.72,10.16L850,119.93c7.58-4.37,13.72-16,13.72-26V19.38a20,20,0,0,0-.42-4.19Z"/><polygon class="cls-25" points="814.02 62.27 697.52 129.53 697.52 137.55 814.02 70.28 814.02 62.27"/><polygon class="cls-25" points="806.56 80.01 697.52 142.96 697.52 150.98 806.56 88.02 806.56 80.01"/><polygon class="cls-25" points="796.98 98.97 697.52 156.39 697.52 164.41 796.98 106.99 796.98 98.97"/><polygon class="cls-25" points="833.72 91.19 697.52 169.82 697.52 177.84 833.72 99.2 833.72 91.19"/><path class="cls-24" d="M1118,258.07,969.89,343.56c-6.42,3.7-11.8,12.07-13.3,20l174.68-100.85C1129.77,256.51,1124.38,254.37,1118,258.07Z"/><path class="cls-14" d="M956.59,363.6a23.06,23.06,0,0,0-.42,4.26v67.47c0,9,6.14,12.82,13.72,8.45L1118,358.28c7.58-4.37,13.72-15.25,13.72-24.29V266.52a16.14,16.14,0,0,0-.42-3.77Z"/><polygon class="cls-25" points="1081.95 306.27 965.45 373.54 965.45 381.55 1081.95 314.29 1081.95 306.27"/><polygon class="cls-25" points="1072.48 325.17 965.45 386.97 965.45 394.99 1072.48 333.19 1072.48 325.17"/><polygon class="cls-25" points="1078.34 335.22 965.45 400.4 965.45 408.42 1078.34 343.24 1078.34 335.22"/><polygon class="cls-25" points="1063.61 357.16 965.45 413.83 965.45 421.85 1063.61 365.18 1063.61 357.16"/></g><g id="Layer_3" data-name="Layer 3"><text class="cls-26" transform="matrix(0.87, -0.5, 0, 1, 271.59, 976.4)">6</text><text class="cls-26" transform="matrix(0.87, -0.5, 0, 1, 362.23, 897.57)">2</text><text class="cls-27" transform="matrix(0.87, -0.5, 0, 1, 451.85, 362.38)">7</text><text class="cls-27" transform="matrix(0.87, -0.5, 0, 1, 538.19, 400.83)">3</text><text class="cls-26" transform="matrix(0.87, -0.5, 0, 1, 467.01, 828.41)">5</text><text class="cls-27" transform="matrix(0.87, -0.5, 0, 1, 629.97, 262.7)">8</text><text class="cls-27" transform="matrix(0.87, -0.5, 0, 1, 538.19, 219.66)">6</text><text class="cls-26" transform="matrix(0.87, -0.5, 0, 1, 647.87, 692.21)">1</text><text class="cls-26" transform="matrix(0.87, -0.5, 0, 1, 555.59, 757.19)">4</text><text class="cls-26" transform="matrix(0.87, -0.5, 0, 1, 741.17, 635.93)">9</text><text class="cls-27" transform="matrix(0.87, -0.5, 0, 1, 636.05, 471.79)">2</text><text class="cls-27" transform="matrix(0.87, -0.5, 0, 1, 455.03, 560.46)">7</text><text class="cls-28" transform="matrix(0.87, -0.5, 0, 1, 733.16, 320.75)">9</text><text class="cls-26" transform="matrix(0.87, 0.5, -0.87, 0.5, 909.5, 508.06)">13</text></g></g></svg>